<svg xmlns="http://www.w3.org/2000/svg" width="24" height="24" viewBox="0 0 24 24">
    <path fill="#5D5D5D" fill-rule="nonzero" d="M12 22c5.523 0 10-4.477 10-10S17.523 2 12 2 2 6.477 2 12s4.477 10 10 10zm0 1C5.925 23 1 18.075 1 12S5.925 1 12 1s11 4.925 11 11-4.925 11-11 11zm0-2a9 9 0 1 0 0-18 9 9 0 0 0 0 18zm0-1a8 8 0 1 1 0-16 8 8 0 0 1 0 16zm-1.143-4.088c.141.152.336.229.585.229.249 0 .592-.176 1.028-.528.437-.351.813-.82 1.13-1.406l-.37-.343c-.533.739-.899 1.108-1.098 1.108-.106 0-.158-.07-.158-.207 0-.138.032-.291.096-.461l.633-1.81c.117-.4.176-.69.176-.871 0-.621-.246-.932-.738-.932-.721 0-1.512.727-2.373 2.18l.588.343c.457-.809.789-1.213.994-1.213.082 0 .123.063.123.189s-.07.376-.207.751c-.138.375-.275.793-.413 1.253-.138.46-.207.823-.207 1.09 0 .266.07.476.211.628zm2.848-7.172a.995.995 0 0 0 .237-.646.949.949 0 0 0-.197-.606c-.132-.167-.33-.25-.594-.25a.82.82 0 0 0-.646.285.965.965 0 0 0-.25.655c0 .246.067.45.202.61.135.162.337.242.606.242.27 0 .484-.096.642-.29z"/>
</svg>
