<svg xmlns="http://www.w3.org/2000/svg" viewBox="0 0 20 20"><path fill="#979797" fill-rule="evenodd" d="M4 14.99c0 .557.452 1.01 1.006 1.01h9.988C15.55 16 16 15.55 16 14.99V7.01C16 6.452 15.548 6 14.994 6H5.006C4.45 6 4 6.45 4 7.01v7.98zM5.006 5h9.988C16.102 5 17 5.902 17 7.01v7.98c0 1.11-.897 2.01-2.006 2.01H5.006C3.898 17 3 16.098 3 14.99V7.01C3 5.9 3.897 5 5.006 5zM7 5.99C7 6.003 6.998 6 7 6V4.01C7 3.997 7.002 4 7 4v1.99zM7 3c.552 0 1 .443 1 1.01v1.98C8 6.55 7.556 7 7 7c-.552 0-1-.443-1-1.01V4.01C6 3.45 6.444 3 7 3zm-1 8h8v1H6v-1zm7-5.01c0 .012-.002.01 0 .01V4.01c0-.012.002-.01 0-.01v1.99zM6 8h8v1H6V8zm6 6h2v1H6v-1h2V8h1v6h2V8h1v6zm1-11c.552 0 1 .443 1 1.01v1.98C14 6.55 13.556 7 13 7c-.552 0-1-.443-1-1.01V4.01C12 3.45 12.444 3 13 3zM6 8v7H5V8h1zm9 0v7h-1V8h1z"/></svg>