<svg xmlns="http://www.w3.org/2000/svg" width="20" height="20" viewBox="0 0 20 20"><path fill="#83D100" fill-rule="evenodd" d="M0 10C0 4.477 4.477 0 10 0s10 4.477 10 10-4.477 10-10 10S0 15.523 0 10zm10.954-2.26h-2.17V15h2.17V7.74zm.224-1.987c0-.177-.035-.343-.105-.497a1.31 1.31 0 0 0-.71-.68 1.355 1.355 0 0 0-1.012 0 1.31 1.31 0 0 0-.69.68c-.066.154-.1.32-.1.497 0 .173.034.335.1.486.07.15.162.284.28.4.12.113.257.204.41.27a1.314 1.314 0 0 0 1.012 0c.162-.066.303-.157.424-.27a1.28 1.28 0 0 0 .287-.4c.07-.152.105-.314.105-.487z"/></svg>