<svg xmlns="http://www.w3.org/2000/svg" width="20" height="20" viewBox="0 0 20 20">
    <path fill="#979797" fill-rule="nonzero" d="M16.516 1h-1.483v.996H3.003v16.02h14.035V6.997H18V19H2V1h14.516zm-4.993 9.11l2.302 1.328-2.455 1.594.153-2.923zm4.95-8.454a1.322 1.322 0 0 1 1.812-.48c.636.368.856 1.177.49 1.81l-4.554 7.888-2.302-1.33 4.554-7.888zM7.468 5.92a3.21 3.21 0 0 0-.015-.176c-.934.97-1.944 3.901-1.944 6.372H4.506c0-2.748 1.126-5.978 2.277-7.107.809-.793 1.62-.358 1.686.86.055 1.027-.261 2.834-.973 5.393a66.06 66.06 0 0 0-.807 3.13l.343-.573c.034-.059.034-.059.07-.117.418-.7.678-1.112.919-1.436.503-.676.872-.967 1.351-.497.435.426.426 1.064.2 2.282l-.062.32c-.093.47-.137.7-.16.863.115-.082.266-.193.465-.342.168-.126.297-.218.425-.304.945-.626 1.754-.683 2.234.258.329.646 1.465.892 3.489.602l.145.973c-2.409.345-3.946.013-4.531-1.135-.12-.234-.261-.224-.775.117-.11.073-.225.155-.38.271l-.32.24a6.396 6.396 0 0 1-.322.227c-.285.185-.514.285-.762.285-.59 0-.735-.433-.693-1.028.02-.278.047-.436.2-1.214l.06-.31c.064-.343.103-.63.12-.853a21.93 21.93 0 0 0-.739 1.178l-.069.116c-.564.946-.673 1.124-.887 1.44-.506.75-.723.975-1.212.72-.603-.314-.385-1.458.731-5.471.686-2.466.987-4.188.939-5.084z"/>
</svg>
