<?xml version="1.0" encoding="UTF-8" standalone="no"?>
<svg width="70px" height="70px" viewBox="0 0 70 70" version="1.1" xmlns="http://www.w3.org/2000/svg" xmlns:xlink="http://www.w3.org/1999/xlink">
    <!-- Generator: sketchtool 40 (33762) - http://www.bohemiancoding.com/sketch -->
    <title>EAE3B2FA-288F-4EB4-98FC-04ACA0E78F84</title>
    <desc>Created with sketchtool.</desc>
    <defs></defs>
    <g id="UI_KIT" stroke="none" stroke-width="1" fill="none" fill-rule="evenodd">
        <g id="UI_Kit" transform="translate(-176.000000, -882.000000)" fill="#F6CA23">
            <g id="Icons" transform="translate(39.000000, 711.000000)">
                <g id="Icon_successfully" transform="translate(137.000000, 171.000000)">
                    <g transform="translate(14.000000, 0.000000)" id="Combined-Shape">
                        <path d="M5.87290028,13.039049 L5.38929888,6 L4.00368123,6 C2.34479389,6 1,4.65348288 1,3 C1,1.34314575 2.34984627,0 4.00368123,0 L39.9963188,0 C41.6552061,0 43,1.34651712 43,3 C43,4.65685425 41.6501537,6 39.9963188,6 L38.625193,6 L38.138805,13.0405282 C41.428829,13.4602033 44,17.087448 44,21.5 C44,26.1944204 41.0898509,30 37.5,30 C37.2394998,30 36.9825788,29.9799606 36.7300892,29.9409964 C35.4083533,35.4544227 31.474676,40.0589388 26.4055596,42.3796645 L25.5307511,45.8403821 C24.7206537,49.045104 24.8784762,54.1884307 25.8848332,57.333248 L28.0182266,64 L16.0628939,64 L18.1446915,57.3513005 C19.1318077,54.1987178 19.2887722,49.0423538 18.4968008,45.8403821 L17.6468499,42.4039968 C12.5519926,40.0908968 8.5986458,35.4726113 7.27501474,29.9402061 C7.02088382,29.9796896 6.76225569,30 6.5,30 C2.91014913,30 0,26.1944204 0,21.5 C0,17.0822163 2.57727155,13.4516033 5.87290028,13.039049 Z M11,67 C11,65.3431458 12.3430813,64 14.0013869,64 L29.9986131,64 C31.6562333,64 33,65.3465171 33,67 C33,68.6568542 31.6569187,70 29.9986131,70 L14.0013869,70 C12.3437667,70 11,68.6534829 11,67 Z M37.9633826,25.9812853 C39.8963793,25.9812853 41,23.9852814 41,21.5 C41,19.0147186 39.8963793,17.0244866 37.9633826,17.0244866 C37.9778088,17.0343692 38.0250663,26.0221612 37.9633826,25.9812853 Z M6.02253967,26.0088678 C6.02898059,26.0088678 6.01238559,17.0455091 6.02253967,17.0326052 C4.08954305,17.0326052 3,19.0147186 3,21.5 C3,23.9852814 4.08954305,26.0088678 6.02253967,26.0088678 Z"></path>
                    </g>
                </g>
            </g>
        </g>
    </g>
</svg>