<svg xmlns="http://www.w3.org/2000/svg" width="20" height="20" viewBox="0 0 20 20"><path d="M6.5 11.503a2.25 2.25 0 1 1 0-4.5 2.25 2.25 0 0 1 0 4.5zM2 14.74c0-.55.394-1.192.888-1.436l1.238-.612c.49-.242 1.26-.2 1.764.03l-.306-.127c.522.135 1.396.182 1.9-.014l-.34.147c.473-.262 1.248-.278 1.756-.024l1.2.6c.497.25.9.908.9 1.448v.266a.996.996 0 0 1-.998.997l-7.004-.01c-.55 0-.998-.457-.998-.998v-.264zm12.502-6.238a2.25 2.25 0 1 1 0-4.502 2.25 2.25 0 0 1 0 4.502zM10 11.74c0-.55.394-1.193.888-1.437l1.24-.612c.49-.242 1.26-.2 1.764.03l-.307-.127c.523.136 1.397.183 1.9-.013l-.34.146c.474-.262 1.25-.278 1.758-.024l1.2.6c.497.25.9.908.9 1.45v.264a.997.997 0 0 1-.998.997l-7.007-.01c-.55 0-.998-.457-.998-1v-.263z" fill="#FFF" fill-rule="evenodd"/></svg>