<svg xmlns="http://www.w3.org/2000/svg" width="20" height="20" viewBox="0 0 20 20"><path fill="#FFF" fill-rule="evenodd" d="M7 13h1.01c.546 0 .99.444.99 1a1 1 0 0 1-.99 1H7v1.01c0 .546-.444.99-1 .99a1 1 0 0 1-1-.99V15H3.99A.993.993 0 0 1 3 14a1 1 0 0 1 .99-1H5v-1.01c0-.546.444-.99 1-.99a1 1 0 0 1 1 .99V13zm4.997-3.005a2.497 2.497 0 1 1 0-4.995 2.497 2.497 0 0 1 0 4.995zM10 13c0-.552-.45-1-1.002-1H7.973l1.477-.73c.496-.244 1.27-.2 1.763.037l-.153-.064c.536.13 1.414.18 1.936-.007l-.198.085c.477-.272 1.272-.29 1.756-.047l1.545.773c.492.246.89.894.89 1.438v.525a.996.996 0 0 1-1 .99H10v-2z"/></svg>