<svg width="20" height="20" viewBox="0 0 20 20" xmlns="http://www.w3.org/2000/svg"><title>066B54E0-6743-4182-9E21-AA7B00D3357B</title><path d="M9.128 7.168a2.872 2.872 0 0 1-.848 2.076 2.77 2.77 0 0 1-1.952.796c-.405 0-.777-.07-1.116-.208a2.59 2.59 0 0 1-1.46-1.496 3.16 3.16 0 0 1-.208-1.168c0-.443.07-.844.208-1.204a2.61 2.61 0 0 1 1.46-1.52 2.87 2.87 0 0 1 1.116-.212c.405 0 .78.07 1.124.212a2.59 2.59 0 0 1 1.468 1.52c.14.36.208.76.208 1.204zm-1.904 0a2.81 2.81 0 0 0-.068-.676 1.203 1.203 0 0 0-.188-.428.65.65 0 0 0-.284-.224.97.97 0 0 0-.356-.064.94.94 0 0 0-.352.064.606.606 0 0 0-.272.224c-.075.107-.133.25-.176.428a2.978 2.978 0 0 0-.064.676c0 .256.02.47.064.64.043.17.1.307.176.408a.623.623 0 0 0 .272.216.94.94 0 0 0 .352.064.97.97 0 0 0 .356-.064.67.67 0 0 0 .284-.216c.08-.1.143-.237.188-.408a2.54 2.54 0 0 0 .068-.64zm5.568-2.456c.08-.09.18-.175.296-.252.117-.077.28-.116.488-.116h1.808L6.6 15.648a.886.886 0 0 1-.736.352H4.008l8.784-11.288zm3.04 8.552a2.9 2.9 0 0 1-.848 2.084 2.77 2.77 0 0 1-1.952.796c-.405 0-.777-.07-1.116-.208a2.59 2.59 0 0 1-1.46-1.5 3.192 3.192 0 0 1-.208-1.172c0-.443.07-.844.208-1.204a2.61 2.61 0 0 1 1.46-1.52 2.87 2.87 0 0 1 1.116-.212c.405 0 .78.07 1.124.212a2.59 2.59 0 0 1 1.468 1.52c.14.36.208.76.208 1.204zm-1.904 0c0-.267-.023-.49-.068-.668a1.203 1.203 0 0 0-.188-.428.65.65 0 0 0-.284-.224.97.97 0 0 0-.356-.064.94.94 0 0 0-.352.064.606.606 0 0 0-.272.224c-.075.107-.133.25-.176.428a2.935 2.935 0 0 0-.064.668c0 .256.02.47.064.64.043.17.1.307.176.408a.623.623 0 0 0 .272.216.94.94 0 0 0 .352.064.97.97 0 0 0 .356-.064.67.67 0 0 0 .284-.216c.08-.1.143-.237.188-.408a2.54 2.54 0 0 0 .068-.64z" fill="#FFF" fill-rule="evenodd"/></svg>