<?xml version="1.0" encoding="UTF-8" standalone="no"?>
<svg width="20px" height="20px" viewBox="0 0 20 20" version="1.1" xmlns="http://www.w3.org/2000/svg" xmlns:xlink="http://www.w3.org/1999/xlink">
    <!-- Generator: sketchtool 40.3 (33839) - http://www.bohemiancoding.com/sketch -->
    <title>9A7212E4-95D8-47B7-B3B2-F47E4FBE5860</title>
    <desc>Created with sketchtool.</desc>
    <defs></defs>
    <g id="UI_KIT" stroke="none" stroke-width="1" fill="none" fill-rule="evenodd">
        <g id="UI_Kit" transform="translate(-120.000000, -841.000000)" fill="#9A9A99">
            <g id="Icon_Info" transform="translate(120.000000, 841.000000)">
                <path d="M0,10 C0,4.4771525 4.4771525,0 10,0 C15.5228475,0 20,4.4771525 20,10 C20,15.5228475 15.5228475,20 10,20 C4.4771525,20 0,15.5228475 0,10 Z M18,10 C18,5.581722 14.418278,2 10,2 C5.581722,2 2,5.581722 2,10 C2,14.418278 5.581722,18 10,18 C14.418278,18 18,14.418278 18,10 Z M9,4 L11,4 L11,6 L9,6 L9,4 Z M9,8 L11,8 L11,15 L9,15 L9,8 Z" id="Combined-Shape"></path>
            </g>
        </g>
    </g>
</svg>