<svg xmlns="http://www.w3.org/2000/svg" width="20" height="20" viewBox="0 0 20 20">
    <path fill="#989897" fill-rule="nonzero" d="M7.437 16.541l-1.018-.2A6 6 0 0 1 2 10.553v-2.51a6 6 0 0 1 6-6h4a6 6 0 0 1 6 6v2.573a6 6 0 0 1-4.94 5.906l-.11.02-4.654 2.305a1 1 0 0 1-1.339-1.342l.48-.964zM8.19 6.168l.357.567a.3.3 0 0 0 .286.165.352.352 0 0 0 .187-.069c.07-.046.155-.097.256-.154a1.777 1.777 0 0 1 .9-.223c.142 0 .275.02.398.061.123.04.228.098.316.173a.802.802 0 0 1 .28.624c0 .206-.043.383-.129.531a1.731 1.731 0 0 1-.321.402c-.129.119-.266.229-.413.33-.147.1-.28.205-.399.313a1.38 1.38 0 0 0-.286.358.729.729 0 0 0-.074.453l.094.897h.929l.127-.803a.565.565 0 0 1 .167-.316c.094-.094.205-.19.333-.286l.41-.311c.145-.11.278-.24.399-.39.12-.15.221-.328.302-.531.08-.204.121-.445.121-.724a1.89 1.89 0 0 0-.154-.775 1.68 1.68 0 0 0-.434-.591 1.96 1.96 0 0 0-.674-.377 2.727 2.727 0 0 0-.872-.132c-.235 0-.453.021-.654.063a2.995 2.995 0 0 0-1.043.432 3.824 3.824 0 0 0-.41.313zm1.039 6.483a.84.84 0 0 0 .237.588.796.796 0 0 0 .264.173.86.86 0 0 0 .33.064.84.84 0 0 0 .59-.237.817.817 0 0 0 .246-.588.815.815 0 0 0-.245-.589.875.875 0 0 0-.264-.176.81.81 0 0 0-.327-.066.829.829 0 0 0-.768.506.846.846 0 0 0-.063.325z"/>
</svg>
