<svg xmlns="http://www.w3.org/2000/svg" width="20" height="20" viewBox="0 0 20 20">
    <path fill="#2A99DC" fill-rule="nonzero" d="M6.534 16.936l.136-.273L7 16l-.73-.122-.301-.05A6 6 0 0 1 1 9.918V8a6 6 0 0 1 6-6h6a6 6 0 0 1 6 6v1.93a6 6 0 0 1-5 5.915l-.916.155-5.411 2.68a1 1 0 0 1-1.34-1.34l.201-.404zM13 8.938c0 .203.036.392.11.566.072.175.172.325.3.452.126.127.279.227.456.3.178.073.369.11.572.11a1.453 1.453 0 0 0 1.023-.41 1.415 1.415 0 0 0 .424-1.018c0-.197-.038-.384-.114-.562a1.401 1.401 0 0 0-.31-.457 1.516 1.516 0 0 0-.457-.305 1.4 1.4 0 0 0-.566-.114 1.44 1.44 0 0 0-1.028.419A1.464 1.464 0 0 0 13 8.938zm-4.5 0c0 .203.036.392.11.566.072.175.172.325.3.452.126.127.279.227.456.3.178.073.369.11.572.11a1.453 1.453 0 0 0 1.023-.41 1.415 1.415 0 0 0 .424-1.018c0-.197-.038-.384-.114-.562a1.401 1.401 0 0 0-.31-.457 1.516 1.516 0 0 0-.457-.305 1.4 1.4 0 0 0-.566-.114 1.44 1.44 0 0 0-1.028.419 1.464 1.464 0 0 0-.41 1.019zm-4.5 0c0 .203.036.392.11.566.072.175.172.325.3.452.126.127.279.227.456.3.178.073.369.11.572.11a1.453 1.453 0 0 0 1.023-.41 1.415 1.415 0 0 0 .424-1.018c0-.197-.038-.384-.114-.562a1.401 1.401 0 0 0-.31-.457 1.516 1.516 0 0 0-.457-.305 1.4 1.4 0 0 0-.566-.114 1.44 1.44 0 0 0-1.028.419A1.464 1.464 0 0 0 4 8.938z"/>
</svg>
