<?xml version="1.0" encoding="UTF-8" standalone="no"?>
<svg width="20px" height="20px" viewBox="0 0 20 20" version="1.1" xmlns="http://www.w3.org/2000/svg" xmlns:xlink="http://www.w3.org/1999/xlink">
    <!-- Generator: sketchtool 41.2 (35397) - http://www.bohemiancoding.com/sketch -->
    <title>2A14EB11-DE16-428F-977E-EF68A6D152C2</title>
    <desc>Created with sketchtool.</desc>
    <defs></defs>
    <g id="Desktop" stroke="none" stroke-width="1" fill="none" fill-rule="evenodd">
        <g id="Desktop_tabs_2" transform="translate(-1170.000000, -295.000000)" fill="#338F11">
            <g id="Copy-of-Driver-License" transform="translate(766.000000, 264.000000)">
                <g id="Button_save" transform="translate(404.000000, 31.000000)">
                    <g id="Icon_upload">
                        <g transform="translate(0.000000, 2.000000)" id="Combined-Shape">
                            <path d="M8.28120417,3 L8,3 L8,3.36533447 L5.96450365,6.00980799 L8,6.00980799 L8,12 L12,12 L12,6.00980799 L13.9645037,6.00980799 L12,3.34565325 L12,3 L11.745121,3 L10.0503203,0.701601972 L8.28120417,3 Z M18,13 L2,13 L2,11 L0,11 L0,14 L0,15 L19,15 L20,15 L20,11 L18,11 L18,13 Z"></path>
                        </g>
                    </g>
                </g>
            </g>
        </g>
    </g>
</svg>