<svg xmlns="http://www.w3.org/2000/svg" width="20" height="20"><path fill="#989897" fill-rule="evenodd" d="M2 3.958L9.998 2v16L2 15.917V3.957zm5.67 7.972H6.6c-.08 0-.146-.02-.196-.062-.05-.042-.09-.09-.123-.144l-.974-1.6c-.015.05-.032.098-.052.143-.02.044-.04.086-.065.125l-.865 1.332c-.033.05-.073.098-.122.14-.047.045-.106.066-.18.066H3.03l1.58-2.372-1.52-2.23h1.07c.082 0 .142.012.18.035.04.022.074.06.104.11l.968 1.533c.033-.1.08-.2.14-.3l.778-1.21c.066-.112.15-.167.256-.167h1.022L6.092 9.51l1.58 2.42zM11 3.993h7v11.96h-7V3.993zM12 5h2v2h-2V5zm0 4h2v2h-2V9zm0 4h2v2h-2v-2zm3-8h2v2h-2V5zm0 4h2v2h-2V9zm0 4h2v2h-2v-2z"/></svg>