<svg xmlns="http://www.w3.org/2000/svg" width="20" height="20"><path fill="#9D9D9C" fill-rule="evenodd" d="M12.096 8.746c-.186 2.164-.905 3.434-2.033 4.542-.083-.58-.303-1.132-.64-1.52-.01.01-2.36 1.997-3.775 3.284.864.994 2.744 1.522 3.738.658.114-.1.215-.215.3-.344 4.76-1.94 4.266-8.82 4.266-8.82h-.006c.002-.028.002-.056.002-.084 0-1.317-1.615-2.44-2.932-2.44-.01.036-.004 4.98 0 4.96.35 0 .723-.086 1.08-.236zM2.996 1h14.01C18.106 1 19 1.893 19 2.995v14.01C19 18.107 18.107 19 17.005 19H2.995C1.893 19 1 18.107 1 17.005V2.995C1 1.893 1.893 1 2.995 1zM3 17.005C3 17.003 17.005 17 17.005 17 17.003 17 17 2.995 17 2.995 17 2.997 2.995 3 2.995 3 2.997 3 3 17.005 3 17.005z"/></svg>