<svg xmlns="http://www.w3.org/2000/svg" width="20" height="20" viewBox="0 0 20 20">
    <path fill="#979797" fill-rule="nonzero" d="M4 14.991C4 15.547 4.452 16 5.006 16h9.988C15.55 16 16 15.55 16 14.991V7.01C16 6.453 15.548 6 14.994 6H5.006C4.45 6 4 6.45 4 7.009v7.982zM5.006 5h9.988C16.102 5 17 5.902 17 7.009v7.982c0 1.11-.897 2.009-2.006 2.009H5.006A2.009 2.009 0 0 1 3 14.991V7.01C3 5.899 3.897 5 5.006 5zM13 3a1 1 0 0 1 1 1.01V5h-2v-.99c0-.558.444-1.01 1-1.01zm1 2.99a1 1 0 1 1-2 0h2zM7 3a1 1 0 0 1 1 1.01V5H6v-.99C6 3.451 6.444 3 7 3zm1 2.99a1 1 0 1 1-2 0h2zM6 11h8v1H6v-1zm0-3h8v1H6V8zm0 6h8v1H6v-1zm0-6v7H5V8h1zm3 4v2H8v-2h1zm0-3v2H8V9h1zm3 3v2h-1v-2h1zm0-3v2h-1V9h1zm3-1v7h-1V8h1z"/>
</svg>
