<svg xmlns="http://www.w3.org/2000/svg" width="40" height="40" viewBox="0 0 40 40"><g fill="none" fill-rule="evenodd"><circle cx="20" cy="20" r="20" fill="#F1F1F1"/><path fill="#DA2E00" d="M22.828 20l4.956-4.956a1.994 1.994 0 0 0-.006-2.822 1.99 1.99 0 0 0-2.822-.006L20 17.172l-4.956-4.956a1.994 1.994 0 0 0-2.822.006 1.99 1.99 0 0 0-.006 2.822L17.172 20l-4.956 4.956a1.994 1.994 0 0 0 .006 2.822 1.99 1.99 0 0 0 2.822.006L20 22.828l4.956 4.956a1.994 1.994 0 0 0 2.822-.006 1.99 1.99 0 0 0 .006-2.822L22.828 20z"/></g></svg>