<svg xmlns="http://www.w3.org/2000/svg" width="20" height="20" viewBox="0 0 20 20"><path fill="#FFF" fill-rule="evenodd" d="M10 17a7 7 0 1 1 0-14 7 7 0 0 1 0 14zm-.877-4.694V14h1.727v-1.694H9.123zm-1.77-3.63h1.616c0-.198.02-.383.065-.556.044-.172.112-.322.204-.45a1.02 1.02 0 0 1 .35-.308c.144-.078.314-.116.512-.116.293 0 .522.08.688.242.165.16.247.41.247.748a.9.9 0 0 1-.105.495 1.477 1.477 0 0 1-.302.364c-.125.11-.26.22-.407.33-.147.11-.286.24-.418.39-.132.15-.247.332-.346.545-.1.212-.16.476-.183.79v.496h1.485v-.418c.03-.22.1-.403.214-.55.114-.147.244-.277.39-.39.148-.114.303-.228.468-.34a2.143 2.143 0 0 0 .792-.996c.092-.228.138-.518.138-.87a1.974 1.974 0 0 0-.594-1.375 2.533 2.533 0 0 0-.84-.534c-.35-.143-.784-.214-1.305-.214-.403 0-.768.067-1.095.203a2.428 2.428 0 0 0-.835.566c-.232.24-.41.527-.54.857-.128.33-.196.693-.203 1.09z"/></svg>