<svg xmlns="http://www.w3.org/2000/svg" viewBox="0 0 20 20"><path fill="#FFF" fill-rule="evenodd" d="M4 3.98h2.063l.915-2.014h6L14.02 3.98h2.983c1.103 0 1.997.898 1.997 2.008V15.99c0 1.11-.893 2.01-1.995 2.01H2.995C1.893 18 1 17.102 1 15.99V5.99c0-.74.404-1.39 1-1.737V3h2v.98zM3 15.99C3 16 17.005 16 17.005 16 17 16 17 5.988 17 5.988c0-.008-2.98-.008-2.98-.008h-1.216l-.56-1.08-1.042-2.013 1.775 1.08h-6L8.8 2.793l-.916 2.013L7.35 5.98H3.002c.007 0 0 10.01 0 10.01zM6 11c0-2.21 1.79-4 4-4s4 1.79 4 4-1.79 4-4 4-4-1.79-4-4zm6 0c0-1.105-.895-2-2-2s-2 .895-2 2 .895 2 2 2 2-.895 2-2z"/></svg>