<svg xmlns="http://www.w3.org/2000/svg" width="20" height="20" viewBox="0 0 20 20">
    <path fill="#FFF" fill-rule="evenodd" d="M7.611 5.388c-.307-.602-.573-1.555-.799-2.859A2.16 2.16 0 0 1 8.942 0a2.21 2.21 0 0 1 2.184 2.541c-.208 1.37-.472 2.352-.793 2.944.26 1.03 1.293 1.92 3.1 2.668A.917.917 0 0 1 14 9H6a1 1 0 0 0-1 1v2H4V9c0-.371.221-.707.563-.853 1.8-.77 2.815-1.69 3.048-2.76zM18.218 19l-3.224-4.383-1.357.637a1.5 1.5 0 0 1-1.274 0l-1.255-.589L7.64 19h10.578zm.782-.625V12.74l-3.083 1.445L19 18.375zM7 18.2l3.177-3.971L7 12.739v5.46zm12-6.565V11H7v.635l5.788 2.713a.5.5 0 0 0 .424 0L19 11.635zM7 10h12a1 1 0 0 1 1 1v8a1 1 0 0 1-1 1H7a1 1 0 0 1-1-1v-8a1 1 0 0 1 1-1zm3-1l-.4-2H8.4L8 9h2zM8 6l.4 1h1.2l.4-1H8z"/>
</svg>
