<svg xmlns="http://www.w3.org/2000/svg" width="20" height="20"><path fill="#FFF" d="M7.172 14.242l1.42-1.42c2.11 1.88 3.586 2.07 4.944.714 1.357-1.358 1.165-2.833-.715-4.943l1.423-1.42c2.263 2.533 3.224 5.26.708 7.777-2.516 2.516-5.243 1.555-7.777-.708zm-1.415-1.414c-2.265-2.532-3.24-5.246-.707-7.778 2.532-2.532 5.246-1.558 7.778.707l-1.42 1.423C9.29 5.29 7.83 5.1 6.463 6.465c-1.366 1.367-1.176 2.827.715 4.943l-1.423 1.42zm2.14-3.547A1.006 1.006 0 0 1 9.32 7.86l2.82 2.82a1.006 1.006 0 0 1-1.42 1.423L7.896 9.28z"/></svg>