<svg xmlns="http://www.w3.org/2000/svg" width="20" height="20" viewBox="0 0 20 20">
    <path fill="#FFF" fill-rule="nonzero" d="M18.218 19l-3.224-4.383-1.357.637a1.5 1.5 0 0 1-1.274 0l-1.255-.589L7.64 19h10.578zm.782-.625V12.74l-3.083 1.445L19 18.375zM7 18.2l3.177-3.971L7 12.739v5.46zm12-6.565V11H7v.635l5.788 2.713a.5.5 0 0 0 .424 0L19 11.635zM11.734 9H8.656a4.087 4.087 0 0 0-.6-.265L8.034 9H6.507l.065-.706a12.88 12.88 0 0 1-.86-.266 6.907 6.907 0 0 1-.823-.346 4.273 4.273 0 0 1-.734-.463 2.834 2.834 0 0 1-.589-.635c-.168-.246-.3-.53-.396-.85a3.887 3.887 0 0 1-.144-1.112c0-.468.093-.922.279-1.364a3.59 3.59 0 0 1 .814-1.183 4.307 4.307 0 0 1 1.319-.86C5.96.99 6.56.86 7.238.825l.099-1.071a.651.651 0 0 1 .202-.418.629.629 0 0 1 .464-.185h.918L8.759.914c.648.114 1.203.3 1.665.558.462.258.858.549 1.188.873l-.612.9a.93.93 0 0 1-.27.301.61.61 0 0 1-.342.095.858.858 0 0 1-.32-.077 6.453 6.453 0 0 1-.409-.189 9.1 9.1 0 0 0-.5-.229 4.256 4.256 0 0 0-.58-.198L8.264 6.44c.288.084.576.175.864.274.288.1.564.212.828.338.264.126.51.273.738.441.228.168.427.364.598.59a2.617 2.617 0 0 1 .442.917zM5 13.831a7.155 7.155 0 0 1-.921-.348 6.646 6.646 0 0 1-.864-.478 4.879 4.879 0 0 1-.729-.58l.765-1.125a.775.775 0 0 1 .27-.239.717.717 0 0 1 .351-.094c.138 0 .282.042.432.126.15.084.316.184.5.302.062.04.128.08.196.12v2.316zM7.058 2.894c-.306.042-.567.11-.783.202a1.712 1.712 0 0 0-.527.338 1.257 1.257 0 0 0-.297.436 1.368 1.368 0 0 0-.094.509c0 .204.034.385.103.545.07.159.167.301.293.427a2.1 2.1 0 0 0 .45.338c.174.099.366.187.576.265l.279-3.06zM7 10h12a1 1 0 0 1 1 1v8a1 1 0 0 1-1 1H7a1 1 0 0 1-1-1v-8a1 1 0 0 1 1-1z"/>
</svg>
