<svg xmlns="http://www.w3.org/2000/svg" width="20" height="20" viewBox="0 0 20 20">
    <path fill="#989897" fill-rule="evenodd" d="M6 4v-.5C6 2.125 7.105 1 8.495 1h2.01A2.503 2.503 0 0 1 13 3.5V4h2.993C16.549 4 17 4.444 17 5v1H2V5c0-.552.449-1 1.007-1H6zM4 7h11v12H4V7zm2 4.498v4.004c0 .283.224.498.5.498.268 0 .5-.223.5-.498v-4.004A.494.494 0 0 0 6.5 11c-.268 0-.5.223-.5.498zm3-.995v5.994c0 .27.224.503.5.503.268 0 .5-.225.5-.503v-5.994A.507.507 0 0 0 9.5 10c-.268 0-.5.225-.5.503zm3 .995v4.004c0 .283.224.498.5.498.268 0 .5-.223.5-.498v-4.004a.494.494 0 0 0-.5-.498c-.268 0-.5.223-.5.498zM8 3.5V4h3v-.5c0-.268-.222-.5-.495-.5h-2.01A.494.494 0 0 0 8 3.5z"/>
</svg>
