<?xml version="1.0" encoding="UTF-8" standalone="no"?>
<svg width="20px" height="20px" viewBox="0 0 20 20" version="1.1" xmlns="http://www.w3.org/2000/svg" xmlns:xlink="http://www.w3.org/1999/xlink">
    <!-- Generator: sketchtool 40.2 (33826) - http://www.bohemiancoding.com/sketch -->
    <title>F3C16E12-4BB2-476D-B372-DA78951D81AC</title>
    <desc>Created with sketchtool.</desc>
    <defs></defs>
    <g id="Desktop" stroke="none" stroke-width="1" fill="none" fill-rule="evenodd">
        <g id="Desktop_v2" transform="translate(-15.000000, -315.000000)" fill="#FFFFFF">
            <g id="Menu" transform="translate(0.000000, 31.000000)">
                <g id="Icon_Info" transform="translate(15.000000, 284.000000)">
                    <path d="M11,9 L11,13 L12,13 L12,14 L8,14 L8,13 L9,13 L9,9 L8,9 L8,8 L12,8 L12,9 L11,9 Z M10,17 C13.8659932,17 17,13.8659932 17,10 C17,6.13400675 13.8659932,3 10,3 C6.13400675,3 3,6.13400675 3,10 C3,13.8659932 6.13400675,17 10,17 Z M10,7 C10.5522847,7 11,6.55228475 11,6 C11,5.44771525 10.5522847,5 10,5 C9.44771525,5 9,5.44771525 9,6 C9,6.55228475 9.44771525,7 10,7 Z" id="Combined-Shape"></path>
                </g>
            </g>
        </g>
    </g>
</svg>