<svg xmlns="http://www.w3.org/2000/svg" style="display: none;">
    <symbol id="icon-edit" viewBox="0 0 20 20">
        <path d="M12.52 2.134c.552-.954 1.767-1.283 2.73-.727.957.552 1.285 1.774.735 2.727l-7.003 12.13-3.464-2 7.003-12.13zM5.02 15.13l3.464 2-3.732 2.463.268-4.464zm7-12.125l3.464 2-.5.866-3.464-2 .5-.865z" fill="#989897" fill-rule="evenodd"/>
    </symbol>
    <symbol id="icon-eye" viewBox="0 0 20 20">
        <path d="M10 15.015c5.523 0 10-5.015 10-5.015s-4.477-4.98-10-4.98S0 10 0 10s4.477 5.015 10 5.015zM10 14c2.21 0 4-1.79 4-4s-1.79-4-4-4-4 1.79-4 4 1.79 4 4 4zm0-1c1.657 0 3-1.343 3-3s-1.343-3-3-3-3 1.343-3 3 1.343 3 3 3z" fill="#989897" fill-rule="evenodd"/>
    </symbol>
    <symbol id="icon-scan-licence" viewBox="0 0 20 20">
        <defs><circle id="a" cx="9" cy="10" r="4"/><mask id="d" width="8" height="8" x="0" y="0" fill="#fff"><use xlink:href="#a"/></mask><path id="b" d="M0 4.988C0 3.878.905 2.98 2 2.98h3.063L5.978.966h6L13.02 2.98h2.983c1.103 0 1.997.898 1.997 2.008V14.99c0 1.11-.893 2.01-1.995 2.01H1.995C.893 17 0 16.102 0 14.99v-10z"/><mask id="e" width="18" height="18" x="0" y="0" fill="#fff"><use xlink:href="#b"/></mask><path id="c" d="M1 2h2v2H1z"/><mask id="f" width="2" height="2" x="0" y="0" fill="#fff"><use xlink:href="#c"/></mask></defs><g fill="none" fill-rule="evenodd" stroke="#FFF" transform="translate(1 1)"><use stroke-width="8%" mask="url(#d)" xlink:href="#a"/><use stroke-width="8%" mask="url(#e)" xlink:href="#b"/><use stroke-width="4%" mask="url(#f)" xlink:href="#c"/></g>
    </symbol>
    <symbol id="icon-remove" viewBox="0 0 20 20">
        <path fill="#DCDCDC" fill-rule="evenodd" d="M9.997 8.593l-2.12-2.12-1.428 1.425 2.12 2.122-2.11 2.11 1.425 1.422 2.11-2.11 2.097 2.1 1.426-1.428-2.097-2.097 2.122-2.122-1.424-1.423-2.12 2.12zM10 18c4.418 0 8-3.582 8-8s-3.582-8-8-8-8 3.582-8 8 3.582 8 8 8z"/>
    </symbol>
    <symbol id="icon-search" viewBox="0 0 20 20"><defs><path id="a" d="M12.906 14.32C11.55 15.373 9.85 16 8 16c-4.418 0-8-3.582-8-8s3.582-8 8-8 8 3.582 8 8c0 1.85-.627 3.55-1.68 4.906l4.75 4.75-1.413 1.415-4.75-4.75z"/><mask id="b" width="19.071" height="19.071" x="0" y="0" fill="#fff"><use xlink:href="#a"/></mask></defs><use fill="none" fill-rule="evenodd" stroke="#989897" stroke-width="4" mask="url(#b)" xlink:href="#a" transform="translate(-40.000000, -801.000000) translate(39.000000, 711.000000) translate(1.000000, 90.000000)"/></symbol>
    <symbol id="icon-calendar" viewBox="0 0 20 20">
        <path>
        <defs>
            <rect id="path-1" x="3" y="5" width="14" height="12" rx="2"></rect>
            <mask id="mask-2" maskContentUnits="userSpaceOnUse" maskUnits="objectBoundingBox" x="0" y="0" width="14" height="12" fill="white">
                <use xlink:href="#path-1"></use>
            </mask>
            <path d="M11,9 L9,9 L9,11 L11,11 L11,9 Z M12,9 L14,9 L14,8 L6,8 L6,9 L8,9 L8,11 L6,11 L6,12 L8,12 L8,14 L6,14 L6,15 L14,15 L14,14 L12,14 L12,12 L14,12 L14,11 L12,11 L12,9 Z M11,14 L9,14 L9,12 L11,12 L11,14 Z M6,8 L6,15 L5,15 L5,8 L6,8 Z M15,8 L15,15 L14,15 L14,8 L15,8 Z" id="path-3"></path>
            <mask id="mask-4" maskContentUnits="userSpaceOnUse" maskUnits="objectBoundingBox" x="0" y="0" width="10" height="7" fill="white">
                <use xlink:href="#path-3"></use>
            </mask>
        </defs>
        <g id="Desktop" stroke="none" stroke-width="1" fill="none" fill-rule="evenodd">
            <g transform="translate(-1226.000000, -370.000000)" id="Home_Owner_info">
                <g transform="translate(258.000000, 230.000000)">
                    <g id="Input_date" transform="translate(681.000000, 106.000000)">
                        <g id="Group-3" transform="translate(287.000000, 34.000000)">
                            <g id="Icon_calendar">
                                <use id="Rectangle-9" stroke="#979797" mask="url(#mask-2)" stroke-width="2" xlink:href="#path-1"></use>
                                <rect id="Rectangle-10" fill="#979797" x="6" y="3" width="2" height="4" rx="1"></rect>
                                <rect id="Rectangle-10-Copy" fill="#979797" x="12" y="3" width="2" height="4" rx="1"></rect>
                                <use id="Combined-Shape" stroke="#979797" mask="url(#mask-4)" stroke-width="2" fill="#D8D8D8" xlink:href="#path-3"></use>
                            </g>
                        </g>
                    </g>
                </g>
            </g>
        </g>
        </path>
    </symbol>
</svg>