<svg xmlns="http://www.w3.org/2000/svg">
    <symbol id="icon-edit">
        <path d="M12.52 2.134c.552-.954 1.767-1.283 2.73-.727.957.552 1.285 1.774.735 2.727l-7.003 12.13-3.464-2 7.003-12.13zM5.02 15.13l3.464 2-3.732 2.463.268-4.464zm7-12.125l3.464 2-.5.866-3.464-2 .5-.865z" fill="#989897" fill-rule="evenodd"/>
    </symbol>
    <symbol id="icon-eye">
        <path d="M10 15.015c5.523 0 10-5.015 10-5.015s-4.477-4.98-10-4.98S0 10 0 10s4.477 5.015 10 5.015zM10 14c2.21 0 4-1.79 4-4s-1.79-4-4-4-4 1.79-4 4 1.79 4 4 4zm0-1c1.657 0 3-1.343 3-3s-1.343-3-3-3-3 1.343-3 3 1.343 3 3 3z" fill="#989897" fill-rule="evenodd"/>
    </symbol>
    <symbol id="icon-search">
        <defs><path id="a" d="M12.906 14.32C11.55 15.373 9.85 16 8 16c-4.418 0-8-3.582-8-8s3.582-8 8-8 8 3.582 8 8c0 1.85-.627 3.55-1.68 4.906l4.75 4.75-1.413 1.415-4.75-4.75z"/><mask id="b" width="19.071" height="19.071" x="0" y="0" fill="#fff"><use xlink:href="#a"/></mask></defs><use fill="none" fill-rule="evenodd" stroke="#989897" stroke-width="4" mask="url(#b)" xlink:href="#a"/>
    </symbol>
</svg>