<svg xmlns="http://www.w3.org/2000/svg">
    <symbol id="icon-edit" width="20" height="20">
        <path d="M12.52 2.134c.552-.954 1.767-1.283 2.73-.727.957.552 1.285 1.774.735 2.727l-7.003 12.13-3.464-2 7.003-12.13zM5.02 15.13l3.464 2-3.732 2.463.268-4.464zm7-12.125l3.464 2-.5.866-3.464-2 .5-.865z" fill="#989897" fill-rule="evenodd"/>
    </symbol>
    <symbol id="icon-eye" width="20" height="20">
        <path d="M10 15.015c5.523 0 10-5.015 10-5.015s-4.477-4.98-10-4.98S0 10 0 10s4.477 5.015 10 5.015zM10 14c2.21 0 4-1.79 4-4s-1.79-4-4-4-4 1.79-4 4 1.79 4 4 4zm0-1c1.657 0 3-1.343 3-3s-1.343-3-3-3-3 1.343-3 3 1.343 3 3 3z" fill="#989897" fill-rule="evenodd"/>
    </symbol>
</svg>