<svg width="0" height="0" version="1.1" xmlns="http://www.w3.org/2000/svg" xmlns:xlink="http://www.w3.org/1999/xlink">
    <defs>
        <symbol id="icon-fax" viewBox="0 0 20 20">
            <g fill="#989897" fill-rule="evenodd"><path d="M9 7H8v11h12V7h-1V1h-4.527L9 4.986V7zm6.052-4L11 6.065V10h6V3h-1.948zM10 13h2v1h-2v-1zm0 2h2v1h-2v-1zm3-2h2v1h-2v-1zm0 2h2v1h-2v-1zm3-2h2v1h-2v-1zm0 2h2v1h-2v-1z"/><path d="M1.5 7h3C5.33 7 6 7.615 6 8.37v8.26C6 17.385 5.335 18 4.5 18h-3C.67 18 0 17.385 0 16.63V8.37C0 7.615.665 7 1.5 7zm.5 9c0-.003 1.997-.003 1.997-.003V9c0 .003-1.997.003-1.997.003L2.003 16z"/></g>
        </symbol>
        <symbol id="icon-home" viewBox="0 0 20 20">
            <path fill="currentColor" fill-rule="evenodd" d="M15 8.942V16H5V8.942H3l7.012-5.04 7.012 5.04H15zM8 11h4v5H8v-5z"/>
        </symbol>
        <symbol id="icon-new-rental-side" viewBox="0 0 40 40">
            <polygon points="5 3 19.9889207 3 19.9889202 7.99658203 25 7.99658203 25 27 5 27"  fill="none" stroke="currentColor" stroke-width="3"></polygon>
        </symbol>
        <symbol id="icon-phone" viewBox="0 0 20 20">
            <path fill="currentColor" fill-rule="evenodd" d="M12.096 8.746c-.186 2.164-.905 3.434-2.033 4.542-.083-.58-.303-1.132-.64-1.52-.01.01-2.36 1.997-3.775 3.284.864.994 2.744 1.522 3.738.658.114-.1.215-.215.3-.344 4.76-1.94 4.266-8.82 4.266-8.82h-.006c.002-.028.002-.056.002-.084 0-1.317-1.615-2.44-2.932-2.44-.01.036-.004 4.98 0 4.96.35 0 .723-.086 1.08-.236zM2.996 1h14.01C18.106 1 19 1.893 19 2.995v14.01C19 18.107 18.107 19 17.005 19H2.995C1.893 19 1 18.107 1 17.005V2.995C1 1.893 1.893 1 2.995 1zM3 17.005C3 17.003 17.005 17 17.005 17 17.003 17 17 2.995 17 2.995 17 2.997 2.995 3 2.995 3 2.997 3 3 17.005 3 17.005z"/>
        </symbol>
        <symbol id="icon-email2" viewBox="0 0 20 20">
            <path fill="currentColor" fill-rule="evenodd" d="M20 5.662v10.344c0 1.1-.898 1.994-1.99 1.994H1.99C.89 18 0 17.105 0 16.006V3.776C0 2.795.748 2 1.67 2h16.66c.92 0 1.67.798 1.67 1.775v1.887zM18.04 8.2V14c0 1.105-.887 2-2.003 2H3.964c-1.106 0-2.004-.898-2.004-2V8.206l8 3.58L18.04 8.2zM1.934 7.33V6.046l9.076 3.92H9.043l8.96-3.92V7.33 3.956c0 .005-16.07 0-16.07 0-.005 0 0 3.374 0 3.374z"/>
        </symbol>
        <symbol id="icon-info" viewBox="0 0 20 20">
            <path fill="currentColor" fill-rule="evenodd" d="M11 9v4h1v1H8v-1h1V9H8V8h4v1h-1zm-1 8c3.866 0 7-3.134 7-7s-3.134-7-7-7-7 3.134-7 7 3.134 7 7 7zm0-10c.552 0 1-.448 1-1s-.448-1-1-1-1 .448-1 1 .448 1 1 1z"/>
        </symbol>
        <symbol id="icon-info-grey" viewBox="0 0 20 20">
            <path fill="currentColor" fill-rule="evenodd" d="M0 10C0 4.477 4.477 0 10 0s10 4.477 10 10-4.477 10-10 10S0 15.523 0 10zm18 0c0-4.418-3.582-8-8-8s-8 3.582-8 8 3.582 8 8 8 8-3.582 8-8zM9 4h2v2H9V4zm0 4h2v7H9V8z"/>
        </symbol>
        <symbol id="icon-reports-side" viewBox="0 0 20 20">
            <path fill="currentColor" fill-rule="evenodd" d="M5 12h2v4H5v-4zm4-3h2v7H9V9zm4-4h2v11h-2V5z"/>
        </symbol>
        <symbol id="icon-my-deals-side" viewBox="0 0 20 20">
            <path fill="currentColor" fill-rule="evenodd" d="M6.126 8H5.002C4.456 8 4 8.446 4 8.997v6.006c0 .544.45.997 1.002.997h9.996c.546 0 1.002-.446 1.002-.997V8.997C16 8.453 15.55 8 14.998 8h-1.124C13.43 6.277 11.864 5 10 5 8.14 5 6.57 6.275 6.126 8zM12 9c0-1.102-.897-2-2-2-1.102 0-2 .897-2 2 .017-.003 3.998-.01 4 0z"/>
        </symbol>
        <symbol id="icon-edit" viewBox="0 0 20 20">
            <path d="M12.52 2.134c.552-.954 1.767-1.283 2.73-.727.957.552 1.285 1.774.735 2.727l-7.003 12.13-3.464-2 7.003-12.13zM5.02 15.13l3.464 2-3.732 2.463.268-4.464zm7-12.125l3.464 2-.5.866-3.464-2 .5-.865z" fill-rule="evenodd" fill="currentColor"/>
        </symbol>
        <symbol id="icon-eye" viewBox="0 0 20 20">
            <path d="M10 15.015c5.523 0 10-5.015 10-5.015s-4.477-4.98-10-4.98S0 10 0 10s4.477 5.015 10 5.015zM10 14c2.21 0 4-1.79 4-4s-1.79-4-4-4-4 1.79-4 4 1.79 4 4 4zm0-1c1.657 0 3-1.343 3-3s-1.343-3-3-3-3 1.343-3 3 1.343 3 3 3z" fill="currentColor" fill-rule="evenodd"/>
        </symbol>
        <symbol id="icon-scan-licence" viewBox="0 0 20 20">
            <path fill-rule="evenodd" fill="currentColor" d="M4 3.98h2.063l.915-2.014h6L14.02 3.98h2.983c1.103 0 1.997.898 1.997 2.008V15.99c0 1.11-.893 2.01-1.995 2.01H2.995C1.893 18 1 17.102 1 15.99V5.99c0-.74.404-1.39 1-1.737V3h2v.98zM3 15.99C3 16 17.005 16 17.005 16 17 16 17 5.988 17 5.988c0-.008-2.98-.008-2.98-.008h-1.216l-.56-1.08-1.042-2.013 1.775 1.08h-6L8.8 2.793l-.916 2.013L7.35 5.98H3.002c.007 0 0 10.01 0 10.01zM6 11c0-2.21 1.79-4 4-4s4 1.79 4 4-1.79 4-4 4-4-1.79-4-4zm6 0c0-1.105-.895-2-2-2s-2 .895-2 2 .895 2 2 2 2-.895 2-2z"/>
        </symbol>
        <symbol id="icon-remove" viewBox="0 0 20 20">
            <path fill="currentColor" fill-rule="evenodd" d="M9.997 8.593l-2.12-2.12L6.45 7.898l2.12 2.122-2.11 2.11 1.424 1.422 2.11-2.11 2.097 2.1 1.43-1.428-2.097-2.097 2.123-2.122-1.424-1.423L10 8.592zM10 18c4.418 0 8-3.582 8-8s-3.582-8-8-8-8 3.582-8 8 3.582 8 8 8z"/>
        </symbol>
        <symbol id="icon-calendar" viewBox="0 0 20 20">
            <path fill="currentColor" fill-rule="evenodd" d="M4 14.99c0 .557.452 1.01 1.006 1.01h9.988C15.55 16 16 15.55 16 14.99V7.01C16 6.452 15.548 6 14.994 6H5.006C4.45 6 4 6.45 4 7.01v7.98zM5.006 5h9.988C16.102 5 17 5.902 17 7.01v7.98c0 1.11-.897 2.01-2.006 2.01H5.006C3.898 17 3 16.098 3 14.99V7.01C3 5.9 3.897 5 5.006 5zM7 5.99C7 6.003 6.998 6 7 6V4.01C7 3.997 7.002 4 7 4v1.99zM7 3c.552 0 1 .443 1 1.01v1.98C8 6.55 7.556 7 7 7c-.552 0-1-.443-1-1.01V4.01C6 3.45 6.444 3 7 3zm-1 8h8v1H6v-1zm7-5.01c0 .012-.002.01 0 .01V4.01c0-.012.002-.01 0-.01v1.99zM6 8h8v1H6V8zm6 6h2v1H6v-1h2V8h1v6h2V8h1v6zm1-11c.552 0 1 .443 1 1.01v1.98C14 6.55 13.556 7 13 7c-.552 0-1-.443-1-1.01V4.01C12 3.45 12.444 3 13 3zM6 8v7H5V8h1zm9 0v7h-1V8h1z"/>
        </symbol>
        <symbol id="icon-add-app" viewBox="0 0 20 20">
            <path fill="currentColor" fill-rule="evenodd" d="M9 9H6v2.017h3V14h2.013v-2.983h2.967V9h-2.967V6H9v3zm1 9c4.418 0 8-3.582 8-8s-3.582-8-8-8-8 3.582-8 8 3.582 8 8 8z"/>
        </symbol>
        <symbol id="icon-get-location" viewBox="0 0 20 20">
            <circle cx="10" cy="10" r="9" fill="none" stroke="currentColor" stroke-width="2" />
            <defs><circle id="a" cx="10" cy="10" r="9"/><mask id="b" width="18" height="18" x="0" y="0" fill="#fff"><use xlink:href="#a"/></mask></defs><g fill="none" fill-rule="evenodd"><use stroke="currentColor" stroke-width="2" mask="url(#b)" xlink:href="#a"/><path fill="currentColor" d="M2 9h3v2H2V9zm13 0h3v2h-3V9z"/><path fill="currentColor" d="M11.033 1.042v4H9v-4h2.033zm0 14V18.5H9v-3.458h2.033z"/></g>
        </symbol>
        <symbol id="icon-reports-big" viewBox="0 0 30 30">
            <path fill-rule="evenodd" fill="currentColor" d="M2 16h6v14H2V16zm10-8h6v22h-6V8zm10-8h6v30h-6V0z"/>
        </symbol>
        <symbol id="icon-my-deals" viewBox="0 0 30 30">
            <path fill-rule="evenodd" fill="currentColor" d="M9 6H1.992C.898 6 0 6.89 0 7.99v18.02C0 27.11.892 28 1.992 28h26.016C29.102 28 30 27.11 30 26.01V7.99C30 6.89 29.108 6 28.008 6H21c0-2.21-1.79-4-3.996-4h-4.008C10.796 2 9 3.79 9 6zm7.732 10H30v-1H0v1h13.268c-.17.294-.268.636-.268 1 0 1.105.895 2 2 2s2-.895 2-2c0-.364-.097-.706-.268-1zM9 6h3c0-.55.452-1 .996-1h4.008c.548 0 .995.446.996 1h3v.002H9V6z" />
        </symbol>
        <symbol id="icon-new-rental" viewBox="0 0 30 30">
            <polygon points="5 3 19.9889207 3 19.9889202 7.99658203 25 7.99658203 25 27 5 27"  fill="none" stroke="currentColor" stroke-width="2"></polygon>
        </symbol>
        <symbol id="icon-user" viewBox="0 0 30 30">
            <circle id="Icon_rejected" fill="#F1F1F1" cx="15" cy="15" r="15"></circle>
            <path d="M15,14 C17.7614237,14 20,11.7614237 20,9 C20,6.23857625 17.7614237,4 15,4 C12.2385763,4 10,6.23857625 10,9 C10,11.7614237 12.2385763,14 15,14 Z M24.1993384,22.5719831 C24.1993384,17.473586 20.033421,15.0008545 15.0078125,15.0008545 C9.98220398,15.0008545 6,17.473586 6,22.5719831 C6,27.6703802 24.1993384,27.6703802 24.1993384,22.5719831 Z" id="Combined-Shape" fill="#9D9D9D"></path>
        </symbol>
        <symbol id="icon-checked" viewBox="0 0 30 30">
            <path fill="currentColor" fill-rule="evenodd" d="M8.485 15.385L2.828 9.728 0 12.556l8.485 8.486 1.59-1.59L24.043 5.484l-2.83-2.828-12.727 12.73z"/>
        </symbol>
        <symbol id="icon-success" viewBox="0 0 24 18">
            <path fill="currentColor" fill-rule="evenodd" d="M8.485 15.385L2.828 9.728 0 12.556l8.485 8.486 1.59-1.59L24.043 5.484l-2.83-2.828-12.727 12.73z"/>
        </symbol>
        <symbol id="icon-reject" viewBox="0 0 40 40">
            <path fill="currentColor" fill-rule="evenodd" d="M32.69 10.252C34.764 12.952 36 16.332 36 20c0 8.837-7.163 16-16 16-3.668 0-7.05-1.235-9.748-3.31L32.69 10.25zM29.874 7.41C27.154 5.274 23.724 4 20 4 11.163 4 4 11.163 4 20c0 3.726 1.274 7.155 3.41 9.875L29.875 7.41zM20 40c11.046 0 20-8.954 20-20S31.046 0 20 0 0 8.954 0 20s8.954 20 20 20z"/>
        </symbol>
        <symbol id="icon-email" viewBox="0 0 24 24">
            <path fill="currentColor" fill-rule="evenodd" d="M22 9.83v7.164C22 18.102 21.102 19 20.01 19H3.99C2.89 19 2 18.103 2 16.994v-7.16l9.953 4.178L22 9.83zM0 4.994C0 3.894.897 3 2.005 3h19.99C23.102 3 24 3.893 24 4.995v14.01C24 20.107 23.103 21 21.995 21H2.005C.898 21 0 20.107 0 19.005V4.995zm2 4L.774 7.154l11.953 5.015-1.543-.004L23.23 7.15 22 8.996v-4C22 5.003 2.005 5 2.005 5 2 5 2 8.996 2 8.996z"/>
        </symbol>
        <symbol id="icon-printer" viewBox="0 0 24 24">
            <path fill="currentColor" fill-rule="evenodd" d="M.02 8.004c-.002-1.105.894-2 1.996-2H5.04l-.015 2.98h9.987L14.997 6h2.988c1.105 0 2.004.89 2.01 2.005l.017 4.02c.005 1.108-.88 2.007-1.985 2.007h-2.98l-.02-3.042H5.024l.032 3.026H2.032c-1.104 0-2.002-.888-2.004-2L.02 8.003zM6 1h8v7H6V1zm0 11h1v7H6v-7zm1 0h7v1H7v-1zm6 1h1v6h-1v-6zm-6 2h6v1H7v-1zm0 3h6v1H7v-1z"/>
        </symbol>
        <symbol id="icon-error" viewBox="0 0 24 24">
            <path fill="currentColor" fill-rule="evenodd" d="M11.755 8.817L5.39 2.453 2.564 5.28l6.364 6.365-6.364 6.364 2.828 2.823 6.365-6.363 6.364 6.364 2.83-2.828-6.362-6.365 6.363-6.36-2.83-2.83-6.363 6.365z"/>
        </symbol>
        <symbol id="icon-excel" viewBox="0 0 24 24">
            <path fill="#989897" fill-rule="evenodd" d="M2 3.958L9.998 2v16L2 15.917V3.957zm5.67 7.972H6.6c-.08 0-.146-.02-.196-.062-.05-.042-.09-.09-.123-.144l-.974-1.6c-.015.05-.032.098-.052.143-.02.044-.04.086-.065.125l-.865 1.332c-.033.05-.073.098-.122.14-.047.045-.106.066-.18.066H3.03l1.58-2.372-1.52-2.23h1.07c.082 0 .142.012.18.035.04.022.074.06.104.11l.968 1.533c.033-.1.08-.2.14-.3l.778-1.21c.066-.112.15-.167.256-.167h1.022L6.092 9.51l1.58 2.42zM11 3.993h7v11.96h-7V3.993zM12 5h2v2h-2V5zm0 4h2v2h-2V9zm0 4h2v2h-2v-2zm3-8h2v2h-2V5zm0 4h2v2h-2V9zm0 4h2v2h-2v-2z"/>
        </symbol>
        <symbol id="icon-preview" viewBox="0 0 24 24">
            <path fill="currentColor" fill-rule="evenodd" d="M16.505 15.09c.448-.714.706-1.56.706-2.465 0-2.56-2.066-4.636-4.617-4.636-2.55 0-4.62 2.074-4.62 4.634 0 2.56 2.07 4.636 4.62 4.636.93 0 1.796-.275 2.52-.75l2.487 2.487 1.406-1.406-2.5-2.5zm-1.283-2.465c0-1.458-1.177-2.64-2.63-2.64-1.452 0-2.63 1.182-2.63 2.64 0 1.458 1.178 2.64 2.63 2.64 1.453 0 2.63-1.182 2.63-2.64zM3 2h1.99v15.97H3V2zm11 0v2H5V2h9zM8 16v2H5v-2h3zm6-14h2v5h-2V2z"/>
        </symbol>
        <symbol id="icon-search" viewBox="0 0 22 22"><defs>
            <path d="M14.3198574,12.9056439 L19.0710678,17.6568542 L17.6568542,19.0710678 L12.9056439,14.3198574 C11.5509601,15.3729184 9.84871145,16 8,16 C3.581722,16 0,12.418278 0,8 C0,3.581722 3.581722,0 8,0 C12.418278,0 16,3.581722 16,8 C16,9.84871145 15.3729184,11.5509601 14.3198574,12.9056439 Z" id="path-1"></path>
            <mask id="mask-2" maskContentUnits="userSpaceOnUse" maskUnits="objectBoundingBox" x="0" y="0" width="19.0710678" height="19.0710678" fill="white">
                <use xlink:href="#path-1"></use>
            </mask>
        </defs>
            <g id="UI_KIT" stroke="none" stroke-width="1" fill="none" fill-rule="evenodd">
                <g id="UI_Kit" transform="translate(-40.000000, -801.000000)" stroke="currentColor" stroke-width="2">
                    <g id="Icons" transform="translate(39.000000, 711.000000)">
                        <g id="Icon_search" transform="translate(1.000000, 90.000000)">
                            <use id="Combined-Shape" mask="url(#mask-2)" xlink:href="#path-1"></use>
                        </g>
                    </g>
                </g>
            </g>
        </symbol>
        <symbol id="icon-pdf" viewBox="0 0 20 20"><path fill="currentColor" fill-rule="evenodd" d="M14 8.228V16H6V4h4.42H9v5h2V4.56L13.528 7H11v2h3v-.772zM11 2.77V2H4v16h12V7h-.743l.555-.574-4.316-4.168L11 2.77z"/></symbol>
        <symbol id="icon-back-to-top" viewBox="0 0 20 20"><g fill="currentColor" fill-rule="evenodd"><path d="M9 7h2v8H9z"/><path d="M10 7.586l-2.828 2.828L5.757 9 8.94 5.818 10 4.758 14.243 9l-1.415 1.414L10 7.586z"/></g></symbol>
        <symbol id="icon-filter" viewBox="0 0 20 19"><defs><path id="a_" d="M14 10.728l6.83-9.726h-20L8 10.872V20l6-4.078v-5.194z"/><mask id="b_" width="20" height="18.998" x="0" y="0" fill="#fff"><use xlink:href="#a_"/></mask></defs><use fill="none" fill-rule="evenodd" stroke="currentColor" stroke-width="2" mask="url(#b_)" xlink:href="#a_" transform="translate(-1)"/></symbol>
        <symbol id="icon-audio" viewBox="0 0 20 19"><path fill="currentColor" fill-rule="evenodd" d="M10 4.5v7.9c-.588-.254-1.27-.4-2-.4-2.21 0-4 1.343-4 3s1.79 3 4 3c2.207 0 3.997-1.34 4-2.995V5.708l5-.732v-2.96L10 3v1.5z"/></symbol>
        <symbol id="icon-successfully">
            <path d="M5.87290028,13.039049 L5.38929888,6 L4.00368123,6 C2.34479389,6 1,4.65348288 1,3 C1,1.34314575 2.34984627,0 4.00368123,0 L39.9963188,0 C41.6552061,0 43,1.34651712 43,3 C43,4.65685425 41.6501537,6 39.9963188,6 L38.625193,6 L38.138805,13.0405282 C41.428829,13.4602033 44,17.087448 44,21.5 C44,26.1944204 41.0898509,30 37.5,30 C37.2394998,30 36.9825788,29.9799606 36.7300892,29.9409964 C35.4083533,35.4544227 31.474676,40.0589388 26.4055596,42.3796645 L25.5307511,45.8403821 C24.7206537,49.045104 24.8784762,54.1884307 25.8848332,57.333248 L28.0182266,64 L16.0628939,64 L18.1446915,57.3513005 C19.1318077,54.1987178 19.2887722,49.0423538 18.4968008,45.8403821 L17.6468499,42.4039968 C12.5519926,40.0908968 8.5986458,35.4726113 7.27501474,29.9402061 C7.02088382,29.9796896 6.76225569,30 6.5,30 C2.91014913,30 0,26.1944204 0,21.5 C0,17.0822163 2.57727155,13.4516033 5.87290028,13.039049 Z M11,67 C11,65.3431458 12.3430813,64 14.0013869,64 L29.9986131,64 C31.6562333,64 33,65.3465171 33,67 C33,68.6568542 31.6569187,70 29.9986131,70 L14.0013869,70 C12.3437667,70 11,68.6534829 11,67 Z M37.9633826,25.9812853 C39.8963793,25.9812853 41,23.9852814 41,21.5 C41,19.0147186 39.8963793,17.0244866 37.9633826,17.0244866 C37.9778088,17.0343692 38.0250663,26.0221612 37.9633826,25.9812853 Z M6.02253967,26.0088678 C6.02898059,26.0088678 6.01238559,17.0455091 6.02253967,17.0326052 C4.08954305,17.0326052 3,19.0147186 3,21.5 C3,23.9852814 4.08954305,26.0088678 6.02253967,26.0088678 Z"></path>
        </symbol>
    </defs>
</svg>