<svg xmlns="http://www.w3.org/2000/svg" width="20" height="20"><path fill="#FFF" fill-rule="evenodd" d="M9 11.007v3.995h2.01v-3.995h1.96l-2.975-3.99-2.974 3.99H9zm10.964 1.436c.024-.205.036-.413.036-.625 0-2.824-2.156-5.114-4.815-5.114-.255 0-.506.02-.75.062C13.625 4.56 11.612 3 9.258 3c-2.833 0-5.17 2.262-5.512 5.185h-.043C1.658 8.185 0 10.01 0 12.26c0 .124.005.247.015.37-.01.115-.015.233-.015.35 0 2.237 1.817 4.057 4.06 4.057h11.89c2.234 0 4.05-1.816 4.05-4.056 0-.18-.013-.36-.037-.535z"/></svg>