<?xml version="1.0" encoding="UTF-8" standalone="no"?>
<svg width="20px" height="20px" viewBox="0 0 20 20" version="1.1" xmlns="http://www.w3.org/2000/svg" xmlns:xlink="http://www.w3.org/1999/xlink">
    <!-- Generator: sketchtool 39.1 (31720) - http://www.bohemiancoding.com/sketch -->
    <title>3F5C3DA6-369E-448F-9F05-DF3C432FE0A1</title>
    <desc>Created with sketchtool.</desc>
    <defs></defs>
    <g id="Desktop" stroke="none" stroke-width="1" fill="none" fill-rule="evenodd">
        <g transform="translate(-258.000000, -425.000000)" id="Home_Owner_info" fill="#50B7F4">
            <g transform="translate(258.000000, 230.000000)">
                <g id="Add_additional_app" transform="translate(0.000000, 195.000000)">
                    <g id="Icon_Add_app">
                        <path d="M9,9 L6,9 L6,11.017395 L9,11.017395 L9,14 L11.0133667,14 L11.0133667,11.017395 L13.9795966,11.017395 L13.9795966,9 L11.0133667,9 L11.0133667,6 L9,6 L9,9 Z M10,18 C14.418278,18 18,14.418278 18,10 C18,5.581722 14.418278,2 10,2 C5.581722,2 2,5.581722 2,10 C2,14.418278 5.581722,18 10,18 Z" id="Combined-Shape"></path>
                    </g>
                </g>
            </g>
        </g>
    </g>
</svg>