<?xml version="1.0" encoding="UTF-8" standalone="no"?>
<svg width="20px" height="20px" viewBox="0 0 20 20" version="1.1" xmlns="http://www.w3.org/2000/svg" xmlns:xlink="http://www.w3.org/1999/xlink">
    <!-- Generator: sketchtool 39.1 (31720) - http://www.bohemiancoding.com/sketch -->
    <title>01B06410-ACC8-424C-A0C8-70E2577B84A1</title>
    <desc>Created with sketchtool.</desc>
    <defs></defs>
    <g id="UI_KIT" stroke="none" stroke-width="1" fill="none" fill-rule="evenodd">
        <g id="UI_Kit" transform="translate(-40.000000, -761.000000)" fill="#989897">
            <g id="Icons" transform="translate(39.000000, 711.000000)">
                <g id="Icon_eye" transform="translate(1.000000, 50.000000)">
                    <path d="M10,15.0151368 C15.5228475,15.0151368 20,10 20,10 C20,10 15.5228475,5.01951161 10,5.01951161 C4.4771525,5.01951161 0,10 0,10 C0,10 4.4771525,15.0151368 10,15.0151368 Z M10,14 C12.209139,14 14,12.209139 14,10 C14,7.790861 12.209139,6 10,6 C7.790861,6 6,7.790861 6,10 C6,12.209139 7.790861,14 10,14 Z M10,13 C11.6568542,13 13,11.6568542 13,10 C13,8.34314575 11.6568542,7 10,7 C8.34314575,7 7,8.34314575 7,10 C7,11.6568542 8.34314575,13 10,13 Z"></path>
                </g>
            </g>
        </g>
    </g>
</svg>