<?xml version="1.0" encoding="UTF-8" standalone="no"?>
<svg width="20px" height="20px" viewBox="0 0 20 20" version="1.1" xmlns="http://www.w3.org/2000/svg" xmlns:xlink="http://www.w3.org/1999/xlink">
    <!-- Generator: sketchtool 39.1 (31720) - http://www.bohemiancoding.com/sketch -->
    <title>21F67DFD-74A3-4CD5-B6F8-EF4D7FD797D9</title>
    <desc>Created with sketchtool.</desc>
    <defs>
        <circle id="path-1" cx="9" cy="10" r="4"></circle>
        <mask id="mask-2" maskContentUnits="userSpaceOnUse" maskUnits="objectBoundingBox" x="0" y="0" width="8" height="8" fill="white">
            <use xlink:href="#path-1"></use>
        </mask>
        <path d="M0,4.98849878 C0,3.87909024 0.90517801,2.97973692 2.00106498,2.97973692 L5.06308432,2.97973692 L5.97789717,0.966317287 L11.9772768,0.966317287 L13.0206468,2.97973692 L16.0033974,2.97973692 C17.1060906,2.97973692 18,3.87809541 18,4.98849878 L18,14.9912381 C18,16.1006467 17.1073772,17 16.0049107,17 L1.99508929,17 C0.893231902,17 0,16.1016415 0,14.9912381 L0,4.98849878 Z" id="path-3"></path>
        <mask id="mask-4" maskContentUnits="userSpaceOnUse" maskUnits="objectBoundingBox" x="0" y="0" width="18" height="16.0336827" fill="white">
            <use xlink:href="#path-3"></use>
        </mask>
        <rect id="path-5" x="1" y="2" width="2" height="2"></rect>
        <mask id="mask-6" maskContentUnits="userSpaceOnUse" maskUnits="objectBoundingBox" x="0" y="0" width="2" height="2" fill="white">
            <use xlink:href="#path-5"></use>
        </mask>
    </defs>
    <g id="Symbols" stroke="none" stroke-width="1" fill="none" fill-rule="evenodd">
        <g id="Button_scan" transform="translate(-59.000000, -9.000000)" stroke="#FFFFFF">
            <g id="Group">
                <g transform="translate(59.000000, 9.000000)">
                    <g id="Icon_scan_licen" transform="translate(1.000000, 1.000000)">
                        <use id="Oval" mask="url(#mask-2)" stroke-width="4" xlink:href="#path-1"></use>
                        <use id="Rectangle" mask="url(#mask-4)" stroke-width="4" xlink:href="#path-3"></use>
                        <use id="Rectangle-2-Copy" mask="url(#mask-6)" stroke-width="2" xlink:href="#path-5"></use>
                    </g>
                </g>
            </g>
        </g>
    </g>
</svg>