<?xml version="1.0" encoding="UTF-8" standalone="no"?>
<svg width="30px" height="30px" viewBox="0 0 30 30" version="1.1" xmlns="http://www.w3.org/2000/svg" xmlns:xlink="http://www.w3.org/1999/xlink">
    <!-- Generator: sketchtool 39.1 (31720) - http://www.bohemiancoding.com/sketch -->
    <title>CC3FFD00-36C4-4C20-B415-BFB36ED9923C</title>
    <desc>Created with sketchtool.</desc>
    <defs></defs>
    <g id="UI_KIT" stroke="none" stroke-width="1" fill="none" fill-rule="evenodd" opacity="0.5">
        <g id="UI_Kit" transform="translate(-881.000000, -359.000000)" fill="#FFFFFF">
            <g id="Address_info" transform="translate(400.000000, 91.000000)">
                <g id="Button_Reports" transform="translate(450.000000, 240.000000)">
                    <g id="Group-4" transform="translate(31.000000, 28.000000)">
                        <g id="Icon_mydeals_btn">
                            <path d="M9.00000069,6 L1.99161703,6 C0.89784041,6 0,6.89147046 0,7.991155 L0,26.008845 C0,27.1103261 0.891677316,28 1.99161703,28 L28.008383,28 C29.1021596,28 30,27.1085295 30,26.008845 L30,7.991155 C30,6.88967395 29.1083227,6 28.008383,6 L20.9999993,6 C20.9987215,3.79054153 19.2102191,2 17.0041738,2 L12.9958262,2 C10.7973071,2 9.00128399,3.79064143 9.00000069,6 Z M16.7324356,16 L30,16 L30,15 L0,15 L0,16 L13.2675644,16 C13.0973943,16.2941734 13,16.6357129 13,17 C13,18.1045695 13.8954305,19 15,19 C16.1045695,19 17,18.1045695 17,17 C17,16.6357129 16.9026057,16.2941734 16.7324356,16 Z M9.00000069,6 L12.0000028,6 C12.001293,5.44985965 12.4517815,5 12.9958262,5 L17.0041738,5 C17.5523179,5 17.9987269,5.44635031 17.9999973,6 L20.9999993,6 C20.9999998,6.00078977 21,6.0015796 21,6.00236948 L9,6.00236948 C9,6.0015796 9.00000023,6.00078977 9.00000069,6 Z"></path>
                        </g>
                    </g>
                </g>
            </g>
        </g>
    </g>
</svg>