<?xml version="1.0" encoding="UTF-8" standalone="no"?>
<svg width="20px" height="20px" viewBox="0 0 20 20" version="1.1" xmlns="http://www.w3.org/2000/svg" xmlns:xlink="http://www.w3.org/1999/xlink">
    <!-- Generator: sketchtool 39.1 (31720) - http://www.bohemiancoding.com/sketch -->
    <title>58D2DA17-58CF-429D-A026-05BD37D464DF</title>
    <desc>Created with sketchtool.</desc>
    <defs></defs>
    <g id="Symbols" stroke="none" stroke-width="1" fill="none" fill-rule="evenodd">
        <g id="Button_scan" transform="translate(-62.000000, -10.000000)" fill="#FFFFFF">
            <g id="Group-8">
                <g transform="translate(62.000000, 10.000000)">
                    <g id="Icon_Scan_license">
                        <path d="M18,18 L13,18 L13,16 L17,16 L17,12 L19,12 L19,18 L18,18 Z M1,17 L1,12 L3,12 L3,16 L7,16 L7,18 L1,18 L1,17 Z M19,4 L19,9 L17,9 L17,5 L13,5 L13,3 L19,3 L19,4 Z M2,3 L7,3 L7,5 L3,5 L3,9 L1,9 L1,3 L2,3 Z" id="Combined-Shape"></path>
                    </g>
                </g>
            </g>
        </g>
    </g>
</svg>