<?xml version="1.0" encoding="UTF-8" standalone="no"?>
<svg width="20px" height="20px" viewBox="0 0 20 20" version="1.1" xmlns="http://www.w3.org/2000/svg" xmlns:xlink="http://www.w3.org/1999/xlink">
    <!-- Generator: sketchtool 39.1 (31720) - http://www.bohemiancoding.com/sketch -->
    <title>51F25621-681D-4F4B-A384-62BECE294075</title>
    <desc>Created with sketchtool.</desc>
    <defs></defs>
    <g id="Desktop" stroke="none" stroke-width="1" fill="none" fill-rule="evenodd">
        <g id="Desktop_popup_Upload" transform="translate(-579.000000, -439.000000)" fill="#FFFFFF">
            <g id="Popup" transform="translate(440.000000, 190.000000)">
                <g id="Button_save" transform="translate(83.000000, 240.000000)">
                    <g id="Group-2" transform="translate(56.000000, 9.000000)">
                        <g id="Icon_upload">
                            <path d="M8.99871825,11.0067139 L8.99871822,15.0023804 L11.0092163,15.0023804 L11.0092163,11.0067139 L12.9694824,11.0067139 L9.99526978,7.01776123 L7.02105708,11.0067139 L8.99871825,11.0067139 Z M19.964484,12.4427388 C19.9879306,12.2380987 20,12.0297288 20,11.8183645 C20,8.99361533 17.844334,6.7037037 15.1851852,6.7037037 C14.9296801,6.7037037 14.6788233,6.72484505 14.4340805,6.76557083 C13.6246079,4.56112916 11.6128498,3 9.25925926,3 C6.42610477,3 4.08827721,5.26212984 3.74665412,8.18545349 C3.73235663,8.18527478 3.71803968,8.18518519 3.7037037,8.18518519 C1.65820463,8.18518519 0,10.0092103 0,12.2592593 C0,12.3839089 0.00508904229,12.507251 0.0150510483,12.629048 C0.00508567458,12.7451783 -4.19257735e-15,12.8627074 0,12.9814279 C7.89365951e-14,15.2166622 1.81724011,17.0369298 4.0589194,17.0369298 L8.46494737,17.0369298 L15.9493918,17.0369298 C18.1849588,17.0369298 20,15.2212197 20,12.9814279 C20,12.7988406 19.987909,12.6190223 19.964484,12.4427388 Z" id="Upload"></path>
                        </g>
                    </g>
                </g>
            </g>
        </g>
    </g>
</svg>