<svg xmlns="http://www.w3.org/2000/svg" width="24" height="24" viewBox="0 0 24 24">
    <path fill="#97C501" fill-rule="nonzero" d="M9.437 17.577l-1.018-.201A6.028 6.028 0 0 1 4 11.556V9.033C4 5.701 6.686 3 10 3h4c3.314 0 6 2.701 6 6.033v2.586c0 2.921-2.081 5.423-4.94 5.939l-.11.02-4.654 2.317a.997.997 0 0 1-1.34-.454 1.01 1.01 0 0 1 .001-.895l.48-.969zm.754-10.43l.357.57a.3.3 0 0 0 .286.166.35.35 0 0 0 .187-.07c.07-.045.155-.097.256-.154a1.767 1.767 0 0 1 .9-.224c.142 0 .275.02.398.06.123.041.228.1.316.175a.806.806 0 0 1 .28.628c0 .206-.043.384-.129.533a1.74 1.74 0 0 1-.321.404c-.129.12-.266.23-.413.332-.147.101-.28.206-.399.315-.119.109-.214.229-.286.36a.736.736 0 0 0-.074.456l.094.901h.929l.127-.807a.569.569 0 0 1 .167-.318c.094-.094.205-.19.333-.288l.41-.312c.145-.11.278-.242.399-.393a2.05 2.05 0 0 0 .302-.533 1.98 1.98 0 0 0 .121-.728c0-.287-.051-.547-.154-.78a1.689 1.689 0 0 0-.434-.594 1.957 1.957 0 0 0-.674-.379 2.713 2.713 0 0 0-.872-.133 3.18 3.18 0 0 0-.654.064 2.983 2.983 0 0 0-1.043.434c-.148.1-.285.205-.41.315zm1.039 6.518a.848.848 0 0 0 .237.592.796.796 0 0 0 .264.174.856.856 0 0 0 .33.064.836.836 0 0 0 .59-.238.822.822 0 0 0 .246-.592.824.824 0 0 0-.245-.592.875.875 0 0 0-.264-.177.805.805 0 0 0-.327-.066.825.825 0 0 0-.831.835z"/>
</svg>
