<svg xmlns="http://www.w3.org/2000/svg" width="24" height="24" viewBox="0 0 24 24">
    <path fill="#C2C8D0" fill-rule="evenodd" d="M9.5 6v-.5c0-1.5 1-1.5 1.495-1.5h2.01c.495 0 1.495.134 1.495 1.5V6h3.506c.273 0 .494.232.494.5V7h-13v-.5a.5.5 0 0 1 .494-.5H9.5zm-3 2h11l-1 12h-9l-1-12zm2 4.498v4.004c0 .283.224.498.5.498.268 0 .5-.223.5-.498v-4.004A.494.494 0 0 0 9 12c-.268 0-.5.223-.5.498zm3-.995v5.994c0 .27.224.503.5.503.268 0 .5-.225.5-.503v-5.994A.507.507 0 0 0 12 11c-.268 0-.5.225-.5.503zm3 .995v4.004c0 .283.224.498.5.498.268 0 .5-.223.5-.498v-4.004A.494.494 0 0 0 15 12c-.268 0-.5.223-.5.498zm-4-6.998V6h3v-.5c0-.268-.222-.5-.495-.5h-2.01a.494.494 0 0 0-.495.5z"/>
</svg>
