<svg xmlns="http://www.w3.org/2000/svg" width="24" height="24" viewBox="0 0 24 24">
    <path fill="#525252" fill-rule="evenodd" d="M11.329 6.64h.845v1.339a4.74 4.74 0 0 1 1.625.455l-.338.884a3.98 3.98 0 0 0-.884-.351 3.419 3.419 0 0 0-.832-.104c-.425 0-.771.095-1.04.286-.269.19-.403.481-.403.871 0 .355.121.615.364.78.243.165.563.312.962.442l.598.195c.667.217 1.172.5 1.514.852.343.35.514.803.514 1.358 0 .33-.06.622-.182.877a2.122 2.122 0 0 1-.487.664 2.39 2.39 0 0 1-.722.448 3.307 3.307 0 0 1-.884.221v1.365h-.845v-1.365a4.348 4.348 0 0 1-1.008-.156 5.067 5.067 0 0 1-.942-.39l.416-.884c.364.208.715.349 1.053.423.338.073.637.11.897.11.217 0 .418-.024.604-.072a1.51 1.51 0 0 0 .495-.22c.143-.1.255-.228.338-.384.082-.156.123-.338.123-.546 0-.364-.128-.641-.383-.832-.256-.19-.631-.364-1.125-.52l-.598-.195a4.634 4.634 0 0 1-.754-.306 2.24 2.24 0 0 1-.579-.422 1.846 1.846 0 0 1-.377-.565 1.85 1.85 0 0 1-.136-.735c0-.659.195-1.174.585-1.547.39-.373.919-.59 1.586-.65V6.64z"/>
</svg>
