<svg xmlns="http://www.w3.org/2000/svg" width="65" height="43" viewBox="0 0 65 43">
    <path fill="#A7BACF" fill-rule="evenodd" d="M2 0h61a2 2 0 0 1 2 2v39a2 2 0 0 1-2 2H2a2 2 0 0 1-2-2V2a2 2 0 0 1 2-2zm0 1a1 1 0 0 0-1 1v39a1 1 0 0 0 1 1h61a1 1 0 0 0 1-1V2a1 1 0 0 0-1-1H2zm41.476 24.11v.234h-.591V27h-.276v-1.656h-.579v-.234h1.446zm.498 1.89h-.264v-2.13h.264v.9a.943.943 0 0 1 .219-.144.607.607 0 0 1 .264-.057c.078 0 .146.011.204.035a.374.374 0 0 1 .227.241.566.566 0 0 1 .028.183V27h-.264v-.906c0-.108-.022-.186-.066-.236-.044-.049-.111-.073-.201-.073a.462.462 0 0 0-.206.051.896.896 0 0 0-.205.144V27zm1.395 0v-1.41h.264V27h-.264zm.132-1.773a.167.167 0 0 1-.118-.047.152.152 0 0 1-.05-.115c0-.046.016-.085.05-.117a.164.164 0 0 1 .118-.048c.044 0 .083.016.117.048a.155.155 0 0 1 .051.117.15.15 0 0 1-.051.115.169.169 0 0 1-.117.047zm1.356.627a.745.745 0 0 0-.342-.084c-.096 0-.167.017-.213.053a.167.167 0 0 0-.069.139c0 .042.016.078.048.11a.525.525 0 0 0 .201.091l.09.027a.78.78 0 0 1 .304.154.33.33 0 0 1 .104.257.38.38 0 0 1-.142.309c-.096.078-.228.117-.398.117-.09 0-.176-.008-.26-.024a.92.92 0 0 1-.214-.066l.063-.207a.98.98 0 0 0 .396.093c.09 0 .161-.016.215-.048.053-.032.079-.085.079-.159 0-.064-.023-.11-.069-.136a.946.946 0 0 0-.198-.08l-.093-.03a.718.718 0 0 1-.29-.158.33.33 0 0 1-.094-.244.352.352 0 0 1 .145-.291.513.513 0 0 1 .161-.08.694.694 0 0 1 .204-.028c.07 0 .142.006.218.02a.917.917 0 0 1 .214.064l-.06.201zM47.964 27v-2.13h.258V27h-.258zm.72 0v-1.41h.264V27h-.264zm.132-1.773a.167.167 0 0 1-.119-.047.152.152 0 0 1-.049-.115c0-.046.016-.085.05-.117a.164.164 0 0 1 .118-.048c.044 0 .083.016.117.048a.155.155 0 0 1 .051.117.15.15 0 0 1-.051.115.169.169 0 0 1-.117.047zm1.233 1.596c.064 0 .12-.007.168-.021a.93.93 0 0 0 .141-.054l.057.198a.857.857 0 0 1-.387.081.891.891 0 0 1-.286-.045.633.633 0 0 1-.392-.364.825.825 0 0 1-.057-.32.81.81 0 0 1 .054-.303.654.654 0 0 1 .381-.375.834.834 0 0 1 .297-.051c.062 0 .122.005.181.014.06.009.127.03.203.064l-.06.201a.594.594 0 0 0-.297-.078.476.476 0 0 0-.354.137.52.52 0 0 0-.135.382c0 .102.014.187.042.255a.418.418 0 0 0 .267.252.594.594 0 0 0 .177.027zm1.779-.498h-1.011v.012c0 .156.042.276.127.36.086.084.201.126.347.126.076 0 .143-.006.203-.018.059-.012.123-.032.193-.06l.054.195a.98.98 0 0 1-.206.063 1.276 1.276 0 0 1-.253.024.95.95 0 0 1-.286-.042.609.609 0 0 1-.396-.357.843.843 0 0 1-.059-.33c0-.11.016-.21.05-.3a.624.624 0 0 1 .357-.377.746.746 0 0 1 .53-.007.544.544 0 0 1 .308.321c.028.076.042.16.042.252v.138zm-.273-.189c0-.052-.006-.1-.02-.145a.34.34 0 0 0-.06-.119.288.288 0 0 0-.103-.081.354.354 0 0 0-.153-.03.36.36 0 0 0-.269.105.474.474 0 0 0-.127.276l.732-.006zm.849.864h-.264v-1.41h.207l.039.195a.81.81 0 0 1 .22-.16.606.606 0 0 1 .266-.056c.144 0 .257.04.339.122a.453.453 0 0 1 .123.337V27h-.264v-.933a.3.3 0 0 0-.068-.206c-.045-.05-.113-.076-.205-.076-.14 0-.271.063-.393.189V27zm2.13-1.146a.745.745 0 0 0-.342-.084c-.096 0-.167.017-.213.053a.167.167 0 0 0-.069.139c0 .042.016.078.048.11a.525.525 0 0 0 .201.091l.09.027a.78.78 0 0 1 .304.154.33.33 0 0 1 .104.257.38.38 0 0 1-.142.309c-.096.078-.228.117-.398.117-.09 0-.176-.008-.26-.024a.92.92 0 0 1-.214-.066l.063-.207a.98.98 0 0 0 .396.093c.09 0 .161-.016.215-.048.053-.032.079-.085.079-.159 0-.064-.023-.11-.069-.136a.946.946 0 0 0-.198-.08l-.093-.03a.718.718 0 0 1-.29-.158.33.33 0 0 1-.094-.244.352.352 0 0 1 .145-.291.513.513 0 0 1 .161-.08.694.694 0 0 1 .204-.028c.07 0 .142.006.218.02a.917.917 0 0 1 .214.064l-.06.201zm1.614.471h-1.011v.012c0 .156.042.276.127.36.086.084.201.126.347.126.076 0 .143-.006.203-.018.059-.012.123-.032.193-.06l.054.195a.98.98 0 0 1-.206.063 1.276 1.276 0 0 1-.253.024.95.95 0 0 1-.286-.042.609.609 0 0 1-.396-.357.843.843 0 0 1-.059-.33c0-.11.016-.21.05-.3a.624.624 0 0 1 .357-.377.746.746 0 0 1 .53-.007.544.544 0 0 1 .308.321c.028.076.042.16.042.252v.138zm-.273-.189c0-.052-.006-.1-.02-.145a.34.34 0 0 0-.06-.119.288.288 0 0 0-.103-.081.354.354 0 0 0-.153-.03.36.36 0 0 0-.269.105.474.474 0 0 0-.127.276l.732-.006zM42.246 30v-1.41h.264V30h-.264zm.132-1.773a.167.167 0 0 1-.118-.047.152.152 0 0 1-.05-.115c0-.046.016-.085.05-.117a.164.164 0 0 1 .118-.048c.044 0 .083.016.117.048a.155.155 0 0 1 .051.117.15.15 0 0 1-.051.115.169.169 0 0 1-.117.047zm1.356.627a.745.745 0 0 0-.342-.084c-.096 0-.167.017-.213.053a.167.167 0 0 0-.069.139c0 .042.016.078.048.11a.525.525 0 0 0 .201.091l.09.027a.78.78 0 0 1 .305.154.33.33 0 0 1 .103.257.38.38 0 0 1-.142.309c-.096.078-.228.117-.398.117-.09 0-.176-.008-.26-.024a.92.92 0 0 1-.214-.066l.063-.207a.98.98 0 0 0 .396.093c.09 0 .161-.016.215-.048.053-.032.079-.085.079-.159 0-.064-.023-.11-.069-.136a.946.946 0 0 0-.198-.08l-.093-.03a.718.718 0 0 1-.29-.158.33.33 0 0 1-.094-.244.352.352 0 0 1 .146-.291.513.513 0 0 1 .16-.08.694.694 0 0 1 .204-.028c.07 0 .142.006.218.02a.917.917 0 0 1 .214.064l-.06.201zM44.871 30v-1.41h.264V30h-.264zm.132-1.773a.167.167 0 0 1-.118-.047.152.152 0 0 1-.05-.115c0-.046.016-.085.05-.117a.164.164 0 0 1 .118-.048c.044 0 .083.016.117.048a.155.155 0 0 1 .051.117.15.15 0 0 1-.051.115.169.169 0 0 1-.117.047zm1.356.627a.745.745 0 0 0-.342-.084c-.096 0-.167.017-.213.053a.167.167 0 0 0-.069.139c0 .042.016.078.048.11a.525.525 0 0 0 .201.091l.09.027a.78.78 0 0 1 .305.154.33.33 0 0 1 .103.257.38.38 0 0 1-.142.309c-.096.078-.228.117-.398.117-.09 0-.176-.008-.26-.024a.92.92 0 0 1-.214-.066l.063-.207a.98.98 0 0 0 .396.093c.09 0 .161-.016.215-.048.053-.032.079-.085.079-.159 0-.064-.023-.11-.069-.136a.946.946 0 0 0-.198-.08l-.093-.03a.718.718 0 0 1-.29-.158.33.33 0 0 1-.094-.244.352.352 0 0 1 .146-.291.513.513 0 0 1 .16-.08.694.694 0 0 1 .204-.028c.07 0 .142.006.218.02a.917.917 0 0 1 .214.064l-.06.201zm1.221 0a.745.745 0 0 0-.342-.084c-.096 0-.167.017-.213.053a.167.167 0 0 0-.069.139c0 .042.016.078.048.11a.525.525 0 0 0 .201.091l.09.027a.78.78 0 0 1 .304.154.33.33 0 0 1 .104.257.38.38 0 0 1-.143.309c-.095.078-.227.117-.397.117-.09 0-.176-.008-.26-.024a.92.92 0 0 1-.214-.066l.063-.207a.98.98 0 0 0 .396.093c.09 0 .161-.016.214-.048.054-.032.08-.085.08-.159 0-.064-.023-.11-.069-.136a.946.946 0 0 0-.198-.08l-.093-.03a.718.718 0 0 1-.29-.158.33.33 0 0 1-.094-.244.352.352 0 0 1 .145-.291.513.513 0 0 1 .161-.08.694.694 0 0 1 .204-.028c.07 0 .142.006.218.02a.917.917 0 0 1 .214.064l-.06.201zm1.374-.264h.264V30h-.207l-.036-.177h-.012a.652.652 0 0 1-.194.145.587.587 0 0 1-.268.059.507.507 0 0 1-.355-.125c-.092-.083-.137-.208-.137-.376v-.936h.264v.903c0 .06.007.111.022.153a.266.266 0 0 0 .06.1.218.218 0 0 0 .089.055.453.453 0 0 0 .327-.035.737.737 0 0 0 .183-.141V28.59zm1.872.735h-1.011v.012c0 .156.042.276.128.36.085.084.2.126.346.126.076 0 .143-.006.203-.018.059-.012.123-.032.193-.06l.054.195a.98.98 0 0 1-.206.063 1.276 1.276 0 0 1-.253.024.95.95 0 0 1-.287-.042.609.609 0 0 1-.396-.357.843.843 0 0 1-.058-.33c0-.11.016-.21.05-.3a.624.624 0 0 1 .357-.377.746.746 0 0 1 .53-.007.544.544 0 0 1 .308.321c.028.076.042.16.042.252v.138zm-.273-.189c0-.052-.006-.1-.02-.145a.34.34 0 0 0-.06-.119.288.288 0 0 0-.103-.081.354.354 0 0 0-.153-.03.36.36 0 0 0-.268.105.474.474 0 0 0-.128.276l.732-.006zm1.536-1.266h.264V30h-.222l-.033-.156h-.009a.638.638 0 0 1-.188.14.571.571 0 0 1-.238.043.561.561 0 0 1-.411-.18.672.672 0 0 1-.135-.227.921.921 0 0 1-.051-.322c0-.11.014-.21.043-.3a.674.674 0 0 1 .125-.231.535.535 0 0 1 .198-.147.662.662 0 0 1 .267-.051c.074 0 .144.011.212.035a.523.523 0 0 1 .178.103v-.837zm0 1.059a.432.432 0 0 0-.49-.13.349.349 0 0 0-.135.091.471.471 0 0 0-.095.162.695.695 0 0 0-.036.237.79.79 0 0 0 .033.244.479.479 0 0 0 .089.165.343.343 0 0 0 .268.125c.15 0 .272-.065.366-.195v-.699zm.63.909a.18.18 0 0 1 .054-.132.176.176 0 0 1 .129-.054c.05 0 .092.018.127.054.036.036.053.08.053.132a.176.176 0 0 1-.18.189.18.18 0 0 1-.183-.189zm.543 0a.18.18 0 0 1 .054-.132.176.176 0 0 1 .129-.054c.05 0 .092.018.127.054.036.036.053.08.053.132a.176.176 0 0 1-.18.189.18.18 0 0 1-.183-.189zM42 9h-.75V1h2.25v8H42zm-7 23.7v-1.4h-.75v-.7H35v-.7h-.75v-.7h-.75v-.7H35V25h.75v14H35v-.7h-.75v-.7H35v-.7h-.75v-.7H35v-.7h-2.25v-1.4h.75v.7H35v-1.4h-2.25v.7H32v-.7h-.75v.7h-.75v-.7h-.75v.7h-1.5v-.7H29V32h.75v-.7h-1.5v-2.8H29v-.7h1.5v.7h-.75v.7H29v.7h.75v.7H32v.7h-.75v.7h-.75v.7h.75V32H32v.7h.75V32h.75v.7H35zm-8.25 0V32h.75v.7h.75v.7h-1.5v.7H26v-.7h-.75v-.7h-.75v.7h.75v1.4H26v.7h-.75v2.8h-.75v-.7h-.75v-.7h.75v-.7h-.75v-.7h.75v-.7h-.75v-1.4H23v-.7h.75V32H23v.7h.75v-1.4h.75v.7h.75v-.7H26v-.7h1.5v.7h-.75v.7H26v.7h.75zM21.5 32v-.7h.75v-.7h1.5v.7H23v.7h-.75v1.4h-.75v.7h-2.25v-.7h1.5v-.7H20V32h1.5zm5.25 2.8v-.7h1.5v.7h-.75v.7h-.75v-.7zm3.75 2.8H32v.7h-.75v.7h-1.5v-.7h-1.5v-2.8H29v-.7h1.5v.7h-.75v.7H29v.7h.75v.7h.75zm-3.75.7v.7h-1.5v-.7H26v-.7h1.5v.7h-.75zm-3.75 0v.7h-1.5v-.7h.75v-.7h1.5v.7H23zm-2.25-2.8v-.7h1.5v.7h-.75v.7H20v-.7h.75zm9.75.7v-.7h.75v.7H32v.7h-1.5v-.7zm-4.5 0v-.7h.75v.7h.75v.7H26v-.7zm-3.75 0v-.7H23v.7h.75v.7h-1.5v-.7zm-4.5 1.4H17v-.7h.75v-.7h.75V38.3h-.75v-.7zm0-4.9V32h.75v.7h.75v.7h-1.5v1.4H17v-1.4h-.75v.7h-.75v-.7h-.75v.7h-1.5v-.7H14V32h.75v-.7h-1.5v-2.8H14v-.7h1.5v.7h-.75v.7H14v.7h.75v.7H17v.7h-.75v.7h-.75v.7h.75V32H17v.7h.75zm-6 0V32h.75v.7h.75v.7h-1.5v.7H11v-.7h-.75v-.7H9.5v.7h.75v1.4H11v.7h-.75v2.8H9.5v-.7h-.75v-.7h.75v-.7h-.75v-.7h.75v-.7h-.75V32.7H8v1.4h-.75v-.7H6.5v.7H5v1.4h.75v-.7h1.5v.7H6.5v.7H5v.7h1.5v.7H5V39h-.75V25H5v1.4h1.5v.7H5v1.4h.75v-.7h1.5v.7H6.5v.7H5v.7h1.5v.7H5V32h1.5v.7h.75V32H6.5v-.7h.75v-.7h1.5v.7H8v.7h.75v-.7h.75v.7h.75v-.7H11v-.7h1.5v.7h-.75v.7H11v.7h.75zM5 33.4h.75v-.7H5v.7zm10.5 4.2H17v.7h-.75v.7h-1.5v-.7h-1.5v-2.8H14v-.7h1.5v.7h-.75v.7H14v.7h.75v.7h.75zm-3.75.7v.7h-1.5v-.7H11v-.7h1.5v.7h-.75zM8 38.3v.7H6.5v-.7h.75v-.7h1.5v.7H8zm11.25-2.8h-1.5v-.7H20v.7h-.75zm-3.75.7v-.7h.75v.7H17v.7h-1.5v-.7zm-4.5 0v-.7h.75v.7h.75v.7H11v-.7zm-3.75 0v-.7H8v.7h.75v.7h-1.5v-.7zM30.5 25.7h.75v1.4h-.75v-.7h-.75v-.7H29V25h1.5v.7zm-4.5 0h.75v1.4H26v-.7h-.75v-.7h-.75V25H26v.7zm-3.75 0H23v1.4h-.75v-.7h-.75v-.7h-.75V25h1.5v.7zm9.75.7v-.7h.75v1.4H32v-.7zm-8.25 0v-.7h.75v.7h.75v.7h-1.5v-.7zm-3.75 0h1.5v.7h-2.25v-.7H20zm7.5 1.4v.7h-.75v-1.4h1.5v.7h-.75zm-2.25.7v2.8h-.75v-.7h-.75v-.7h.75v-.7h-.75v-.7h.75v-.7H26v.7h-.75zM17 27.1v-1.4h.75v1.4h.75v.7H20v.7h-2.25v-.7H17v-.7zm3.75 1.4v-.7h1.5v.7h-.75v.7H20v-.7h.75zm9.75.7v-.7h.75v.7H32v.7h-1.5v-.7zm-4.5 0v-.7h.75v.7h.75v.7H26v-.7zm-3.75 0v-.7H23v.7h.75v.7h-1.5v-.7zm-4.5 1.4H17v-.7h.75v-.7h.75V31.3h-.75v-.7zm-2.25-4.9h.75v1.4h-.75v-.7h-.75v-.7H14V25h1.5v.7zm-4.5 0h.75v1.4H11v-.7h-.75v-.7H9.5V25H11v.7zm-3.75 0H8v1.4h-.75v-.7H6.5v-.7h-.75V25h1.5v.7zm1.5.7v-.7h.75v.7h.75v.7h-1.5v-.7zm1.5 2.1v2.8H9.5v-.7h-.75v-.7h.75v-.7h-.75v-.7h.75v-.7H11v.7h-.75zm5.25.7v-.7h.75v.7H17v.7h-1.5v-.7zm-4.5 0v-.7h.75v.7h.75v.7H11v-.7zm-3.75 0v-.7H8v.7h.75v.7h-1.5v-.7zm46.555.638a.18.18 0 0 1 .054-.132.176.176 0 0 1 .129-.054c.05 0 .092.018.127.054.036.036.053.08.053.132a.176.176 0 0 1-.18.189.18.18 0 0 1-.183-.189zM2 25h1.5v14H2V25zm34.5 0H38v14h-1.5V25zm-17.25 5.6H20v.7h-.75v-.7zm0-1.4H20v.7h-.75v-.7zM17 28.5h.75v.7H17v-.7zm-9-.7h.75v.7H8v-.7zm3.75 0h.75v.7h-.75v-.7zm4.5 0H17v.7h-.75v-.7zm-3.75 3.5h.75v.7h-.75v-.7zm4.5 0h.75v.7H17v-.7zm1.5 0h.75v.7h-.75v-.7zm-5.25-4.9h1.5v.7h-1.5v-.7zm-.75-.7h.75v.7h-.75v-.7zm6 0h.75v.7h-.75v-.7zM8 25h.75v.7H8V25zm3.75 0h.75v.7h-.75V25zm4.5 0H17v.7h-.75V25zm1.5 0h.75v.7h-.75V25zm15 5.6h.75v.7h-.75v-.7zM20 29.9h1.5v.7H20v-.7zm12.75-.7h.75v.7h-.75v-.7zm-.75-.7h.75v.7H32v-.7zm-9-.7h.75v.7H23v-.7zm8.25 0H32v.7h-.75v-.7zm1.5 0h.75v.7h-.75v-.7zm-5.25 3.5h.75v.7h-.75v-.7zm4.5 0h.75v.7H32v-.7zm1.5 0h.75v.7h-.75v-.7zm-5.25-4.9h1.5v.7h-1.5v-.7zm-.75-.7h.75v.7h-.75v-.7zm6 0h.75v.7h-.75v-.7zM23 25h.75v.7H23V25zm3.75 0h.75v.7h-.75V25zm4.5 0H32v.7h-.75V25zm1.5 0h.75v.7h-.75V25zm-13.5 12.6H20v.7h-.75v-.7zm0-1.4H20v.7h-.75v-.7zM17 35.5h.75v.7H17v-.7zm-9-.7h.75v.7H8v-.7zm3.75 0h.75v.7h-.75v-.7zm4.5 0H17v.7h-.75v-.7zm-7.5 3.5h.75v.7h-.75v-.7zm3.75 0h.75v.7h-.75v-.7zm4.5 0h.75v.7H17v-.7zm1.5 0h.75v.7h-.75v-.7zm14.25-.7h.75v.7h-.75v-.7zM20 36.9h1.5v.7H20v-.7zm12.75-.7h.75v.7h-.75v-.7zm-.75-.7h.75v.7H32v-.7zm-9-.7h.75v.7H23v-.7zm8.25 0H32v.7h-.75v-.7zm-7.5 3.5h.75v.7h-.75v-.7zm3.75 0h.75v.7h-.75v-.7zm4.5 0h.75v.7H32v-.7zm1.5 0h.75v.7h-.75v-.7zm-11.25-4.9H23v.7h-.75v-.7zM45.75 1h1.5v8h-1.5V1zm3.75 0H51v8h-1.5V1zM54 1h1.5v8H54V1zm-9.75 0H45v8h-.75V1zM48 1h.75v8H48V1zm3.75 0h.75v8h-.75V1zm4.5 0H57v8h-.75V1zm1.5 0h.75v8h-.75V1zm1.5 0H60v8h-.75V1zM24 1h1.5v8H24V1zm3.75 0h1.5v8h-1.5V1zm3.75 0H33v8h-1.5V1zM36 1h1.5v8H36V1zm-9.75 0H27v8h-.75V1zM30 1h.75v8H30V1zm3.75 0h.75v8h-.75V1zm4.5 0H39v8h-.75V1zm1.5 0h.75v8h-.75V1zM1 10h63v9H1v-9z"/>
</svg>
