<svg xmlns="http://www.w3.org/2000/svg" width="20" height="20" viewBox="0 0 20 20">
    <path fill="#97C501" fill-rule="evenodd" d="M2 3.958L9.998 2v16L2 15.917V3.957zm5.671 7.972L6.091 9.51l1.517-2.18H6.586c-.105 0-.19.055-.256.166l-.779 1.21c-.06.1-.106.2-.139.301l-.968-1.533a.295.295 0 0 0-.103-.11.373.373 0 0 0-.18-.034H3.09l1.521 2.229-1.584 2.372h.994a.258.258 0 0 0 .18-.065.715.715 0 0 0 .122-.141l.864-1.332a.99.99 0 0 0 .117-.269l.976 1.601a.593.593 0 0 0 .124.144c.05.041.115.062.196.062h1.071zM11 3.993h7v11.96h-7V3.992zM12 5v2h2V5h-2zm0 4v2h2V9h-2zm0 4v2h2v-2h-2zm3-8v2h2V5h-2zm0 4v2h2V9h-2zm0 4v2h2v-2h-2z"/>
</svg>
