<svg xmlns="http://www.w3.org/2000/svg" width="24" height="24" viewBox="0 0 24 24">
    <path fill="#97C501" fill-rule="evenodd" d="M10.523 19a7.112 7.112 0 0 1-2.429-1.007l.113-2.2-2.2.113A7.112 7.112 0 0 1 5 13.476L6.636 12 5 10.523c.185-.88.531-1.7 1.007-2.429l2.2.113-.113-2.2A7.112 7.112 0 0 1 10.524 5L12 6.636 13.477 5c.88.185 1.7.531 2.429 1.007l-.113 2.2 2.2-.113A7.112 7.112 0 0 1 19 10.524L17.364 12 19 13.477c-.185.88-.531 1.7-1.007 2.429l-2.2-.113.113 2.2A7.112 7.112 0 0 1 13.476 19L12 17.364 10.523 19zM12 15.576a3.576 3.576 0 1 0 0-7.152 3.576 3.576 0 0 0 0 7.152z"/>
</svg>
