<svg xmlns="http://www.w3.org/2000/svg" width="24" height="24" viewBox="0 0 24 24">
    <path fill="#61A2F6" fill-rule="evenodd" d="M9.35 21.487c-.304-.343-.455-.813-.455-1.412s.148-1.415.445-2.448c.297-1.033.594-1.971.89-2.814.297-.842.446-1.405.446-1.688 0-.283-.089-.424-.265-.424-.443 0-1.156.908-2.142 2.724L7 14.655c1.857-3.264 3.562-4.896 5.116-4.896 1.06 0 1.591.698 1.591 2.093 0 .408-.126 1.06-.379 1.955l-1.364 4.067a3.064 3.064 0 0 0-.208 1.036c0 .31.113.464.34.464.43 0 1.22-.83 2.37-2.488l.795.77c-.682 1.317-1.494 2.37-2.435 3.16-.94.79-1.68 1.184-2.217 1.184-.536 0-.956-.171-1.26-.513zm6.138-16.11c-.34.433-.802.65-1.383.65-.58 0-1.017-.18-1.307-.542-.29-.362-.436-.82-.436-1.372 0-.553.18-1.044.54-1.471.36-.428.824-.642 1.393-.642.568 0 .994.188 1.279.563.284.375.426.829.426 1.362 0 .533-.17 1.017-.512 1.451z"/>
</svg>
