<svg xmlns="http://www.w3.org/2000/svg" width="24" height="24" viewBox="0 0 24 24">
    <g fill="none" fill-rule="evenodd" transform="translate(6 6)">
        <rect width="12" height="12" fill="#FFDA1B" rx="2"/>
        <path fill="#6C6B00" d="M5.15 8.97c-.107-.117-.161-.278-.161-.482 0-.203.053-.481.158-.833.105-.352.21-.671.316-.958.105-.287.158-.479.158-.575 0-.097-.031-.145-.094-.145-.157 0-.41.31-.76.928l-.45-.262C4.975 5.53 5.58 4.975 6.132 4.975c.376 0 .565.238.565.713 0 .14-.045.36-.135.666l-.484 1.385c-.05.13-.074.247-.074.353 0 .105.04.158.121.158.153 0 .433-.283.84-.847l.283.262c-.242.448-.53.807-.864 1.076-.334.269-.596.403-.787.403-.19 0-.34-.058-.447-.175zM7.33 3.482a.6.6 0 0 1-.491.222c-.206 0-.361-.062-.464-.185a.704.704 0 0 1-.155-.468c0-.188.064-.355.192-.5a.627.627 0 0 1 .494-.219c.202 0 .353.064.454.192.1.127.151.282.151.464 0 .181-.06.346-.181.494z"/>
    </g>
</svg>
