<svg xmlns="http://www.w3.org/2000/svg" width="24" height="24" viewBox="0 0 24 24">
    <path fill="#238300" fill-rule="evenodd" d="M8 6h8a2 2 0 0 1 2 2v8a2 2 0 0 1-2 2H8a2 2 0 0 1-2-2V8a2 2 0 0 1 2-2zm3.13 8.933a.576.576 0 0 0 .445.174c.19 0 .45-.134.783-.402s.62-.625.86-1.071l-.28-.261c-.407.562-.686.844-.838.844-.08 0-.12-.053-.12-.158 0-.105.024-.222.074-.351l.482-1.38c.089-.303.134-.524.134-.663 0-.473-.188-.71-.563-.71-.549 0-1.152.554-1.808 1.661l.449.261c.348-.616.6-.924.756-.924.063 0 .094.048.094.144 0 .096-.052.287-.157.573-.105.285-.21.603-.315.954-.105.35-.157.627-.157.83 0 .203.053.363.16.479zm2.17-5.464a.758.758 0 0 0 .18-.492c0-.181-.05-.335-.15-.462-.101-.128-.252-.191-.453-.191-.2 0-.365.072-.492.217a.735.735 0 0 0-.19.5.7.7 0 0 0 .153.465c.103.122.257.184.462.184a.598.598 0 0 0 .49-.221z"/>
</svg>
