<svg xmlns="http://www.w3.org/2000/svg" width="24" height="24" viewBox="0 0 24 24">
    <path fill="#97C501" fill-rule="evenodd" d="M9.695 19h4.61a7 7 0 0 1 1.814-3.412C17.38 14.28 18 12.768 18 11c0-3.016-2.446-5-6-5s-6 1.984-6 5c0 1.769.619 3.28 1.881 4.588A7 7 0 0 1 9.695 19zm5.345 4.042a1 1 0 0 1-1 .958H9.96a1 1 0 0 1-1-.958L8.841 20.2a6 6 0 0 0-1.679-3.919C5.721 14.79 5 13.03 5 11c0-3.782 3.134-6 7-6s7 2.218 7 6c0 2.03-.72 3.79-2.162 5.282a6 6 0 0 0-1.68 3.919l-.118 2.84zM12.114 8.92c.368 0 .698.052.99.156.292.104.538.246.738.426.2.18.352.394.456.642.104.248.156.516.156.804 0 .424-.112.804-.336 1.14-.224.336-.5.664-.828.984-.168.168-.314.312-.438.432s-.226.232-.306.336c-.08.104-.14.206-.18.306a.88.88 0 0 0-.06.33c0 .16.028.32.084.48l-1.176.18a2.08 2.08 0 0 1-.132-.732c0-.344.084-.642.252-.894.168-.252.404-.538.708-.858.152-.152.288-.294.408-.426s.222-.26.306-.384a1.379 1.379 0 0 0 .258-.822.967.967 0 0 0-.252-.666c-.168-.188-.436-.282-.804-.282-.192 0-.38.028-.564.084a1.985 1.985 0 0 0-.564.288l-.528-.984c.232-.168.508-.3.828-.396.32-.096.648-.144.984-.144zm-1.056 7.836c0-.248.084-.454.252-.618a.83.83 0 0 1 .6-.246.81.81 0 0 1 .594.246c.164.164.246.37.246.618a.833.833 0 0 1-.84.864.84.84 0 0 1-.852-.864zM10 20v1h4v-1h-4zm0 2v1h4v-1h-4zm1.5-22h1v3h-1V0zm7.621 2l.707.707-2.12 2.121L17 4.121 19.121 2zM4 2.707L4.707 2l2.121 2.121-.707.707L4 2.708zM.5 8.966L.759 8l2.898.776-.26.966L.5 8.966zm20.259.776l-.259-.966L23.398 8l.259.966-2.898.776zm-19.73 6.312l-.5-.866 2.598-1.5.5.866-2.598 1.5zm19.271-1.5l.5-.866 2.598 1.5-.5.866-2.598-1.5z"/>
</svg>
