<svg xmlns="http://www.w3.org/2000/svg" xmlns:xlink="http://www.w3.org/1999/xlink" width="60" height="70" viewBox="0 0 60 70">
    <defs>
        <circle id="a" cx="29" cy="40" r="29"/>
        <path id="b" d="M29 69c16.016 0 29-12.984 29-29V0H0v40c0 16.016 12.984 29 29 29z"/>
        <rect id="d" width="52" height="69" x="3" y="3" rx="2"/>
        <path id="e" d="M8 8h20v19H8z"/>
    </defs>
    <g fill="none" fill-rule="evenodd">
        <g transform="translate(1)">
            <use fill="#FFF" xlink:href="#a"/>
            <circle cx="29" cy="40" r="29.5" stroke="#CCDBEC"/>
        </g>
        <g transform="translate(1)">
            <mask id="c" fill="#fff">
                <use xlink:href="#b"/>
            </mask>
            <g mask="url(#c)">
                <use fill="#F6FAFF" xlink:href="#d"/>
                <rect width="51" height="68" x="3.5" y="3.5" stroke="#CCDBEC" rx="2"/>
            </g>
        </g>
        <g transform="translate(1)">
            <use fill="#FFF" xlink:href="#e"/>
            <path stroke="#CCDBEC" d="M8.5 8.5h19v18h-19z"/>
        </g>
        <path fill="#CCDBEC" d="M17 66h14v1H17zM11 62h30v1H11zM9 58h42v1H9zM9 54h42v1H9zM9 34h42v1H9zM9 30h42v1H9zM33 23h18v1H33zM33 19h18v1H33zM33 15h18v1H33zM33 11h18v1H33zM33 50h18v1H33zM33 46h18v1H33zM33 42h18v1H33zM17.6 17.436c-.296-.46-.62-1.141-.973-2.041A2.487 2.487 0 0 1 18.942 12a2.539 2.539 0 0 1 2.378 3.426c-.35.94-.676 1.638-.978 2.093.27 1.007 1.285 1.878 3.044 2.614a1 1 0 0 1 .614.922V23H14v-1.953a1 1 0 0 1 .603-.918c1.748-.755 2.747-1.652 2.997-2.693zM20.057 51.547a1 1 0 0 1-1.646.041C15.471 47.548 14 44.685 14 43a5 5 0 0 1 10 0c0 1.68-1.314 4.529-3.943 8.547zM19 45.143a2.143 2.143 0 1 0 0-4.286 2.143 2.143 0 0 0 0 4.286z"/>
    </g>
</svg>
