<svg xmlns="http://www.w3.org/2000/svg" width="24" height="24" viewBox="0 0 24 24">
    <path fill="#FFF" fill-rule="evenodd" d="M12.864 5.496l7 12A1 1 0 0 1 19 19H5a1 1 0 0 1-.864-1.504l7-12a1 1 0 0 1 1.728 0zm-.32 4.557a.364.364 0 0 0-.144-.312.569.569 0 0 0-.349-.107.61.61 0 0 0-.353.102.333.333 0 0 0-.15.293c0 .126.044.727.13 1.803.086 1.075.15 1.902.19 2.48.006.072.049.107.129.107h.1c.086 0 .129-.035.129-.107l.319-4.259zm-.064 5.594a.608.608 0 0 0-.434-.175.583.583 0 0 0-.428.18.582.582 0 0 0-.18.424c0 .163.06.302.18.42.12.116.262.175.428.175.166 0 .311-.059.434-.176a.564.564 0 0 0 .184-.424.564.564 0 0 0-.184-.424z"/>
</svg>
