<svg xmlns="http://www.w3.org/2000/svg" width="32" height="32" viewBox="0 0 32 32">
    <defs>
        <linearGradient id="a" x1="95.526%" x2="0%" y1="100%" y2="0%">
            <stop offset="0%" stop-color="#A4E402"/>
            <stop offset="100%" stop-color="#7CC501"/>
        </linearGradient>
    </defs>
    <path fill="url(#a)" fill-rule="evenodd" d="M15.432 19.093L29.427 5.097a.997.997 0 0 1 1.41-.005l.855.855a.997.997 0 0 1-.004 1.41L17.09 21.955a.993.993 0 0 1-.094.108l-.854.855a.98.98 0 0 1-.59.281.99.99 0 0 1-.83-.281l-.855-.855a.997.997 0 0 1-.093-.108L7.098 15.28a.999.999 0 0 1-.007-1.413l.854-.855a1.003 1.003 0 0 1 1.413.007l6.074 6.074zM27.183 4.587l-1.696 1.696A13.533 13.533 0 0 0 15.982 2.4C8.48 2.4 2.397 8.489 2.397 16c0 7.511 6.083 13.6 13.585 13.6 7.503 0 13.585-6.089 13.585-13.6 0-1.116-.134-2.2-.387-3.239l1.932-1.932c.553 1.622.853 3.362.853 5.171 0 8.837-7.156 16-15.983 16C7.156 32 0 24.837 0 16S7.156 0 15.982 0c4.363 0 8.317 1.75 11.201 4.587z"/>
</svg>
