<svg xmlns="http://www.w3.org/2000/svg" xmlns:xlink="http://www.w3.org/1999/xlink" width="92" height="64" viewBox="0 0 92 64">
    <defs>
        <path id="a" d="M42.007 36.038v18.08h7.988v-18.08h8.003l-11.996-16-11.997 16h8.002zm49.843 7.278c.099.772.15 1.56.15 2.36 0 10.17-8.245 18.416-18.424 18.416H18.424C8.249 64.092 0 55.849 0 45.676c0-.505.02-1.004.06-1.499-.04-.522-.06-1.05-.06-1.584 0-10.35 7.628-18.741 17.037-18.741l.198.001C18.806 10.406 29.56 0 42.593 0c10.826 0 20.08 7.181 23.804 17.322a21.035 21.035 0 0 1 3.455-.285C82.084 17.037 92 27.571 92 40.564c0 .931-.05 1.85-.15 2.752z"/>
    </defs>
    <g fill="none" fill-rule="evenodd">
        <use fill="#F6FAFF" xlink:href="#a"/>
        <path stroke="#CCDBEC" d="M41.507 36.538h-8.502l12.997-17.333 12.996 17.333h-8.503v18.08h-8.988v-18.08zm49.847 6.841v-.118c.097-.89.146-1.79.146-2.697 0-12.724-9.7-23.027-21.648-23.027-1.138 0-2.265.093-3.373.278l-.409.068-.143-.389C62.193 7.324 52.987.5 42.593.5 29.928.5 19.287 10.595 17.73 23.911l-.052.448-.45-.006-.192-.001C7.915 24.352.5 32.508.5 42.592c0 .52.02 1.035.058 1.626C.52 44.7.5 45.187.5 45.676c0 9.896 8.024 17.916 17.924 17.916h55.152c9.901 0 17.924-8.02 17.924-17.916 0-.773-.049-1.54-.146-2.297z"/>
    </g>
</svg>
