<svg xmlns="http://www.w3.org/2000/svg" width="20" height="20" viewBox="0 0 20 20">
    <path fill="#C2C8D0" fill-rule="evenodd" d="M8.381 16.858a7.112 7.112 0 0 1-2.429-1.007l.112-2.2-2.2.112a7.112 7.112 0 0 1-1.006-2.429l1.635-1.476L2.858 8.38c.184-.88.53-1.7 1.007-2.429l2.2.112-.113-2.2a7.112 7.112 0 0 1 2.43-1.006l1.476 1.635 1.476-1.635c.88.184 1.7.53 2.43 1.007l-.113 2.2 2.2-.113a7.112 7.112 0 0 1 1.007 2.43l-1.636 1.476 1.636 1.476c-.185.88-.531 1.7-1.007 2.43l-2.2-.113.112 2.2a7.112 7.112 0 0 1-2.429 1.007l-1.476-1.636-1.477 1.636zm1.477-3.424a3.576 3.576 0 1 0 0-7.153 3.576 3.576 0 0 0 0 7.153z"/>
</svg>
