<svg xmlns="http://www.w3.org/2000/svg" width="24" height="24" viewBox="0 0 24 24">
    <g fill="none" fill-rule="evenodd" transform="translate(5 5)">
        <rect width="14" height="15" fill="#FFDA1B" rx="2"/>
        <path fill="#6C6B00" d="M6.009 11.212c-.126-.146-.189-.346-.189-.601s.062-.603.185-1.043c.123-.44.245-.839.368-1.197.123-.359.185-.598.185-.719 0-.12-.037-.18-.11-.18-.183 0-.479.386-.887 1.16l-.525-.328c.769-1.39 1.475-2.085 2.118-2.085.44 0 .659.297.659.891 0 .174-.053.451-.157.832L7.09 9.673c-.057.163-.086.31-.086.442 0 .131.047.197.141.197.178 0 .505-.353.98-1.059l.33.328c-.282.56-.618 1.009-1.008 1.345-.39.336-.696.504-.918.504-.222 0-.396-.073-.521-.218zM8.55 4.353a.683.683 0 0 1-.573.278c-.24 0-.42-.077-.54-.231a.92.92 0 0 1-.181-.584.96.96 0 0 1 .223-.627.711.711 0 0 1 .577-.273c.235 0 .412.08.53.24a.95.95 0 0 1 .176.58c0 .227-.07.433-.212.617z"/>
    </g>
</svg>
