<svg xmlns="http://www.w3.org/2000/svg" width="24" height="24" viewBox="0 0 24 24">
    <path fill="#EF4829" fill-rule="evenodd" d="M7 5h10a2 2 0 0 1 2 2v11a2 2 0 0 1-2 2H7a2 2 0 0 1-2-2V7a2 2 0 0 1 2-2zm3.984 11.166c.125.145.299.218.52.218.221 0 .526-.167.914-.502.388-.335.723-.782 1.004-1.34l-.328-.326c-.474.703-.8 1.055-.977 1.055-.094 0-.14-.066-.14-.197s.028-.278.085-.44l.563-1.724c.104-.38.156-.656.156-.829 0-.591-.218-.887-.656-.887-.64 0-1.344.692-2.11 2.076l.524.327c.406-.77.7-1.156.883-1.156.073 0 .11.06.11.18s-.062.359-.184.716c-.123.357-.245.755-.368 1.193-.122.438-.183.784-.183 1.038s.062.453.187.598zm2.532-6.83a.99.99 0 0 0 .21-.615.947.947 0 0 0-.175-.578c-.117-.159-.293-.238-.528-.238a.708.708 0 0 0-.574.272.957.957 0 0 0-.222.623c0 .235.06.429.18.582.119.153.299.23.538.23a.68.68 0 0 0 .57-.276z"/>
</svg>
